<svg xmlns="http://www.w3.org/2000/svg" xmlns:xlink="http://www.w3.org/1999/xlink" width="200" zoomAndPan="magnify" viewBox="0 0 150 149.999998" height="200" preserveAspectRatio="xMidYMid meet" version="1.0"><defs><g><g id="id1"/></g></defs><g fill="rgb(98.81897%, 81.959534%, 22.349548%)" fill-opacity="1"><g transform="translate(20.526019, 140.296813)"><g><path d="M 104.578125 -28.546875 L 104.578125 0 L 5.453125 0 L 5.453125 -22.546875 L 53.109375 -67.109375 C 57.710938 -71.472656 60.800781 -75.203125 62.375 -78.296875 C 63.957031 -81.390625 64.75 -84.507812 64.75 -87.65625 C 64.75 -91.78125 63.351562 -94.992188 60.5625 -97.296875 C 57.769531 -99.609375 53.707031 -100.765625 48.375 -100.765625 C 43.644531 -100.765625 39.3125 -99.703125 35.375 -97.578125 C 31.4375 -95.453125 28.191406 -92.390625 25.640625 -88.390625 L -1.09375 -103.3125 C 3.875 -111.550781 10.84375 -118.035156 19.8125 -122.765625 C 28.789062 -127.492188 39.40625 -129.859375 51.65625 -129.859375 C 61.351562 -129.859375 69.929688 -128.28125 77.390625 -125.125 C 84.847656 -121.976562 90.664062 -117.460938 94.84375 -111.578125 C 99.03125 -105.703125 101.125 -98.882812 101.125 -91.125 C 101.125 -84.207031 99.632812 -77.6875 96.65625 -71.5625 C 93.6875 -65.445312 87.960938 -58.507812 79.484375 -50.75 L 55.46875 -28.546875 Z M 104.578125 -28.546875 "/></g></g></g></svg>