<svg xmlns="http://www.w3.org/2000/svg" xmlns:xlink="http://www.w3.org/1999/xlink" width="200" zoomAndPan="magnify" viewBox="0 0 150 149.999998" height="200" preserveAspectRatio="xMidYMid meet" version="1.0"><defs><g><g id="id1"/></g></defs><g fill="rgb(98.81897%, 81.959534%, 22.349548%)" fill-opacity="1"><g transform="translate(20.160872, 140.296813)"><g><path d="M 71.484375 -76.390625 C 82.023438 -74.203125 90.113281 -69.863281 95.75 -63.375 C 101.394531 -56.894531 104.21875 -49.046875 104.21875 -39.828125 C 104.21875 -32.304688 102.1875 -25.332031 98.125 -18.90625 C 94.0625 -12.488281 87.875 -7.304688 79.5625 -3.359375 C 71.257812 0.578125 60.988281 2.546875 48.75 2.546875 C 39.769531 2.546875 30.882812 1.457031 22.09375 -0.71875 C 13.300781 -2.90625 5.691406 -6 -0.734375 -10 L 12.375 -37.109375 C 17.34375 -33.710938 22.945312 -31.101562 29.1875 -29.28125 C 35.4375 -27.457031 41.59375 -26.546875 47.65625 -26.546875 C 53.832031 -26.546875 58.738281 -27.695312 62.375 -30 C 66.019531 -32.3125 67.84375 -35.585938 67.84375 -39.828125 C 67.84375 -48.078125 61.351562 -52.203125 48.375 -52.203125 L 33.28125 -52.203125 L 33.28125 -74.9375 L 56.015625 -99.484375 L 5.8125 -99.484375 L 5.8125 -127.3125 L 97.84375 -127.3125 L 97.84375 -104.765625 Z M 71.484375 -76.390625 "/></g></g></g></svg>