<svg xmlns="http://www.w3.org/2000/svg" xmlns:xlink="http://www.w3.org/1999/xlink" width="1610" zoomAndPan="magnify" viewBox="0 0 1207.5 809.999993" height="1080" preserveAspectRatio="xMidYMid meet" version="1.0"><defs><clipPath id="id1"><path d="M 1037 1.746094 L 1132 1.746094 L 1132 47 L 1037 47 Z M 1037 1.746094 " clip-rule="nonzero"/></clipPath><clipPath id="id2"><path d="M 1051 1.746094 L 1107 1.746094 L 1107 47 L 1051 47 Z M 1051 1.746094 " clip-rule="nonzero"/></clipPath><clipPath id="id3"><path d="M 1051 1.746094 L 1083 1.746094 L 1083 47 L 1051 47 Z M 1051 1.746094 " clip-rule="nonzero"/></clipPath><clipPath id="id4"><path d="M 1106 1.746094 L 1133 1.746094 L 1133 42 L 1106 42 Z M 1106 1.746094 " clip-rule="nonzero"/></clipPath><clipPath id="id5"><path d="M 1109 1.746094 L 1131 1.746094 L 1131 8 L 1109 8 Z M 1109 1.746094 " clip-rule="nonzero"/></clipPath><clipPath id="id6"><path d="M 1097 1.746094 L 1107 1.746094 L 1107 16 L 1097 16 Z M 1097 1.746094 " clip-rule="nonzero"/></clipPath><clipPath id="id7"><path d="M 1082 1.746094 L 1107 1.746094 L 1107 26 L 1082 26 Z M 1082 1.746094 " clip-rule="nonzero"/></clipPath><clipPath id="id8"><path d="M 1037 1.746094 L 1058 1.746094 L 1058 47 L 1037 47 Z M 1037 1.746094 " clip-rule="nonzero"/></clipPath><clipPath id="id9"><path d="M 844 780 L 938 780 L 938 809.832031 L 844 809.832031 Z M 844 780 " clip-rule="nonzero"/></clipPath><clipPath id="id10"><path d="M 875.472656 805 L 907 805 L 907 809.832031 L 875.472656 809.832031 Z M 875.472656 805 " clip-rule="nonzero"/></clipPath><clipPath id="id11"><path d="M 906 790 L 927 790 L 927 809.832031 L 906 809.832031 Z M 906 790 " clip-rule="nonzero"/></clipPath><clipPath id="id12"><path d="M 930 809 L 937.835938 809 L 937.835938 809.832031 L 930 809.832031 Z M 930 809 " clip-rule="nonzero"/></clipPath><clipPath id="id13"><path d="M 906 809 L 916 809 L 916 809.832031 L 906 809.832031 Z M 906 809 " clip-rule="nonzero"/></clipPath><clipPath id="id14"><path d="M 844 794 L 862 794 L 862 809.832031 L 844 809.832031 Z M 844 794 " clip-rule="nonzero"/></clipPath><clipPath id="id15"><path d="M 129 1.746094 L 219 1.746094 L 219 30 L 129 30 Z M 129 1.746094 " clip-rule="nonzero"/></clipPath><clipPath id="id16"><path d="M 138 1.746094 L 188 1.746094 L 188 30 L 138 30 Z M 138 1.746094 " clip-rule="nonzero"/></clipPath><clipPath id="id17"><path d="M 138 1.746094 L 158 1.746094 L 158 30 L 138 30 Z M 138 1.746094 " clip-rule="nonzero"/></clipPath><clipPath id="id18"><path d="M 196 1.746094 L 219 1.746094 L 219 25 L 196 25 Z M 196 1.746094 " clip-rule="nonzero"/></clipPath><clipPath id="id19"><path d="M 174 1.746094 L 188 1.746094 L 188 9 L 174 9 Z M 174 1.746094 " clip-rule="nonzero"/></clipPath><clipPath id="id20"><path d="M 129 1.746094 L 143 1.746094 L 143 30 L 129 30 Z M 129 1.746094 " clip-rule="nonzero"/></clipPath><clipPath id="id21"><path d="M 84.070312 693 L 279 693 L 279 809.832031 L 84.070312 809.832031 Z M 84.070312 693 " clip-rule="nonzero"/></clipPath><clipPath id="id22"><path d="M 160 744 L 236.757812 744 L 236.757812 809.832031 L 160 809.832031 Z M 160 744 " clip-rule="nonzero"/></clipPath><clipPath id="id23"><path d="M 134 763.222656 L 206 763.222656 L 206 809.832031 L 134 809.832031 Z M 134 763.222656 " clip-rule="nonzero"/></clipPath><clipPath id="id24"><path d="M 82 773 L 133 773 L 133 809.832031 L 82 809.832031 Z M 82 773 " clip-rule="nonzero"/></clipPath><clipPath id="id25"><path d="M 245.363281 730 L 274 730 L 274 809.832031 L 245.363281 809.832031 Z M 245.363281 730 " clip-rule="nonzero"/></clipPath><clipPath id="id26"><path d="M 80 773 L 104 773 L 104 809.832031 L 80 809.832031 Z M 80 773 " clip-rule="nonzero"/></clipPath><clipPath id="id27"><path d="M 1116.332031 241 L 1207 241 L 1207 386.789062 L 1116.332031 386.789062 Z M 1116.332031 241 " clip-rule="nonzero"/></clipPath><clipPath id="id28"><path d="M 1177 290 L 1207 290 L 1207 349 L 1177 349 Z M 1177 290 " clip-rule="nonzero"/></clipPath><clipPath id="id29"><path d="M 1195 240.515625 L 1207 240.515625 L 1207 257.722656 L 1195 257.722656 Z M 1195 240.515625 " clip-rule="nonzero"/></clipPath><clipPath id="id30"><path d="M 1116.332031 341 L 1207 341 L 1207 386.789062 L 1116.332031 386.789062 Z M 1116.332031 341 " clip-rule="nonzero"/></clipPath></defs><path fill="rgb(93.728638%, 17.649841%, 23.139954%)" d="M 636.59375 73.984375 C 628.160156 77.445312 602.746094 92.695312 602.746094 92.695312 C 602.746094 92.695312 583.921875 115.59375 579.25 123.433594 C 574.578125 131.261719 583.199219 163.351562 583.199219 163.351562 L 660.792969 160.050781 L 675.496094 83.773438 C 675.496094 83.773438 645.035156 70.519531 636.59375 73.984375 " fill-opacity="1" fill-rule="nonzero"/><path fill="rgb(84.709167%, 12.939453%, 20.779419%)" d="M 660.792969 160.050781 L 644.714844 98.871094 L 616.164062 108.265625 Z M 660.792969 160.050781 " fill-opacity="1" fill-rule="nonzero"/><path fill="rgb(75.689697%, 11.759949%, 18.03894%)" d="M 660.792969 160.050781 L 602.664062 135.136719 L 616.164062 108.265625 Z M 660.792969 160.050781 " fill-opacity="1" fill-rule="nonzero"/><path fill="rgb(95.289612%, 38.42926%, 42.749023%)" d="M 595.042969 102.234375 L 616.164062 108.265625 L 612.71875 86.820312 L 602.410156 92.828125 L 595.042969 102.234375 " fill-opacity="1" fill-rule="nonzero"/><path fill="rgb(94.119263%, 23.139954%, 29.019165%)" d="M 583.199219 163.351562 L 602.664062 135.136719 L 586.433594 113.273438 L 577.015625 124.886719 C 577.015625 124.886719 576.933594 151.296875 583.199219 163.351562 " fill-opacity="1" fill-rule="nonzero"/><path fill="rgb(93.728638%, 17.649841%, 23.139954%)" d="M 578.359375 144.960938 C 579.25 151.65625 580.730469 158.613281 583.199219 163.351562 L 595.035156 146.195312 C 589.484375 145.785156 583.921875 145.371094 578.359375 144.960938 " fill-opacity="1" fill-rule="nonzero"/><path fill="rgb(94.119263%, 23.139954%, 29.019165%)" d="M 644.714844 98.871094 L 675.496094 83.773438 C 675.496094 83.773438 645.96875 70.503906 640.785156 71.480469 L 619.734375 82.804688 L 644.714844 98.871094 " fill-opacity="1" fill-rule="nonzero"/><path fill="rgb(94.898987%, 34.118652%, 45.878601%)" d="M 639.207031 72.335938 L 619.734375 82.804688 L 637.574219 94.273438 Z M 639.207031 72.335938 " fill-opacity="1" fill-rule="nonzero"/><path fill="rgb(94.119263%, 23.139954%, 29.019165%)" d="M 616.164062 108.265625 L 644.714844 98.871094 L 614.894531 100.359375 Z M 616.164062 108.265625 " fill-opacity="1" fill-rule="nonzero"/><path fill="rgb(63.529968%, 8.239746%, 14.898682%)" d="M 616.164062 108.265625 L 625.261719 118.828125 L 649.789062 118.164062 L 644.714844 98.871094 L 616.164062 108.265625 " fill-opacity="1" fill-rule="nonzero"/><path fill="rgb(63.529968%, 8.239746%, 14.898682%)" d="M 672.664062 98.433594 L 675.496094 83.773438 L 659.023438 91.855469 Z M 672.664062 98.433594 " fill-opacity="1" fill-rule="nonzero"/><path fill="rgb(63.529968%, 8.239746%, 14.898682%)" d="M 583.199219 163.351562 L 625.824219 145.070312 L 660.792969 160.050781 Z M 583.199219 163.351562 " fill-opacity="1" fill-rule="nonzero"/><path fill="rgb(84.709167%, 12.939453%, 20.779419%)" d="M 665.054688 137.945312 L 659.023438 91.855469 L 673.078125 98.082031 Z M 665.054688 137.945312 " fill-opacity="1" fill-rule="nonzero"/><path fill="rgb(94.898987%, 34.118652%, 45.878601%)" d="M 576.042969 126.515625 L 586.433594 113.273438 L 588.164062 145.683594 L 578.359375 144.960938 L 576.042969 126.515625 " fill-opacity="1" fill-rule="nonzero"/><path fill="rgb(93.728638%, 17.649841%, 23.139954%)" d="M 1072.640625 491.347656 C 1064.199219 494.820312 1038.785156 510.070312 1038.785156 510.070312 C 1038.785156 510.070312 1019.960938 532.96875 1015.289062 540.796875 C 1010.628906 548.636719 1019.238281 580.726562 1019.238281 580.726562 L 1096.835938 577.417969 L 1111.535156 501.136719 C 1111.535156 501.136719 1081.074219 487.886719 1072.640625 491.347656 " fill-opacity="1" fill-rule="nonzero"/><path fill="rgb(84.709167%, 12.939453%, 20.779419%)" d="M 1096.835938 577.417969 L 1080.765625 516.246094 L 1052.210938 525.632812 Z M 1096.835938 577.417969 " fill-opacity="1" fill-rule="nonzero"/><path fill="rgb(75.689697%, 11.759949%, 18.03894%)" d="M 1096.835938 577.417969 L 1038.710938 552.503906 L 1052.210938 525.632812 Z M 1096.835938 577.417969 " fill-opacity="1" fill-rule="nonzero"/><path fill="rgb(95.289612%, 38.42926%, 42.749023%)" d="M 1031.082031 519.605469 L 1052.210938 525.632812 L 1048.757812 504.195312 L 1038.449219 510.195312 L 1031.082031 519.605469 " fill-opacity="1" fill-rule="nonzero"/><path fill="rgb(94.119263%, 23.139954%, 29.019165%)" d="M 1019.238281 580.726562 L 1038.710938 552.503906 L 1022.472656 530.640625 L 1013.054688 542.253906 C 1013.054688 542.253906 1012.972656 568.671875 1019.238281 580.726562 " fill-opacity="1" fill-rule="nonzero"/><path fill="rgb(93.728638%, 17.649841%, 23.139954%)" d="M 1014.398438 562.328125 C 1015.296875 569.03125 1016.769531 575.988281 1019.238281 580.726562 L 1031.074219 563.5625 C 1025.523438 563.148438 1019.960938 562.738281 1014.398438 562.328125 " fill-opacity="1" fill-rule="nonzero"/><path fill="rgb(94.119263%, 23.139954%, 29.019165%)" d="M 1080.765625 516.246094 L 1111.535156 501.136719 C 1111.535156 501.136719 1082.007812 487.871094 1076.832031 488.855469 L 1055.773438 500.171875 L 1080.765625 516.246094 " fill-opacity="1" fill-rule="nonzero"/><path fill="rgb(94.898987%, 34.118652%, 45.878601%)" d="M 1075.246094 489.703125 L 1055.773438 500.171875 L 1073.617188 511.648438 Z M 1075.246094 489.703125 " fill-opacity="1" fill-rule="nonzero"/><path fill="rgb(94.119263%, 23.139954%, 29.019165%)" d="M 1052.210938 525.632812 L 1080.765625 516.246094 L 1050.933594 517.734375 Z M 1052.210938 525.632812 " fill-opacity="1" fill-rule="nonzero"/><path fill="rgb(63.529968%, 8.239746%, 14.898682%)" d="M 1052.210938 525.632812 L 1061.308594 536.195312 L 1085.828125 535.53125 L 1080.765625 516.246094 L 1052.210938 525.632812 " fill-opacity="1" fill-rule="nonzero"/><path fill="rgb(63.529968%, 8.239746%, 14.898682%)" d="M 1108.703125 515.808594 L 1111.535156 501.136719 L 1095.0625 509.230469 Z M 1108.703125 515.808594 " fill-opacity="1" fill-rule="nonzero"/><path fill="rgb(63.529968%, 8.239746%, 14.898682%)" d="M 1019.238281 580.726562 L 1061.871094 562.433594 L 1096.835938 577.417969 Z M 1019.238281 580.726562 " fill-opacity="1" fill-rule="nonzero"/><path fill="rgb(84.709167%, 12.939453%, 20.779419%)" d="M 1101.09375 555.308594 L 1095.0625 509.230469 L 1109.117188 515.457031 Z M 1101.09375 555.308594 " fill-opacity="1" fill-rule="nonzero"/><path fill="rgb(94.898987%, 34.118652%, 45.878601%)" d="M 1012.082031 543.882812 L 1022.472656 530.640625 L 1024.210938 563.058594 L 1014.398438 562.328125 L 1012.082031 543.882812 " fill-opacity="1" fill-rule="nonzero"/><path fill="rgb(93.728638%, 17.649841%, 23.139954%)" d="M 690.996094 699.550781 C 685.519531 692.257812 664.363281 671.492188 664.363281 671.492188 C 664.363281 671.492188 637.464844 659.03125 628.714844 656.484375 C 619.953125 653.941406 591.078125 670.359375 591.078125 670.359375 L 613.800781 744.636719 L 691.3125 739.671875 C 691.3125 739.671875 696.472656 706.84375 690.996094 699.550781 " fill-opacity="1" fill-rule="nonzero"/><path fill="rgb(84.709167%, 12.939453%, 20.779419%)" d="M 613.800781 744.636719 L 668.953125 713.683594 L 652.671875 688.40625 Z M 613.800781 744.636719 " fill-opacity="1" fill-rule="nonzero"/><path fill="rgb(75.689697%, 11.759949%, 18.03894%)" d="M 613.800781 744.636719 L 623.277344 682.105469 L 652.671875 688.40625 Z M 613.800781 744.636719 " fill-opacity="1" fill-rule="nonzero"/><path fill="rgb(95.289612%, 38.42926%, 42.749023%)" d="M 653.191406 666.433594 L 652.671875 688.40625 L 672.554688 679.667969 L 664.15625 671.207031 L 653.191406 666.433594 " fill-opacity="1" fill-rule="nonzero"/><path fill="rgb(94.119263%, 23.139954%, 29.019165%)" d="M 591.078125 670.359375 L 623.277344 682.105469 L 640.339844 660.878906 L 626.738281 654.6875 C 626.738281 654.6875 601.160156 661.257812 591.078125 670.359375 " fill-opacity="1" fill-rule="nonzero"/><path fill="rgb(93.728638%, 17.649841%, 23.139954%)" d="M 607.660156 661.039062 C 601.402344 663.59375 595.042969 666.777344 591.078125 670.359375 L 610.660156 677.5 C 609.652344 672.015625 608.660156 666.527344 607.660156 661.039062 " fill-opacity="1" fill-rule="nonzero"/><path fill="rgb(94.119263%, 23.139954%, 29.019165%)" d="M 668.953125 713.683594 L 691.3125 739.671875 C 691.3125 739.671875 696.714844 707.75 694.464844 702.976562 L 678.210938 685.449219 L 668.953125 713.683594 " fill-opacity="1" fill-rule="nonzero"/><path fill="rgb(94.898987%, 34.118652%, 45.878601%)" d="M 693.246094 701.660156 L 678.210938 685.449219 L 671.597656 705.609375 Z M 693.246094 701.660156 " fill-opacity="1" fill-rule="nonzero"/><path fill="rgb(94.119263%, 23.139954%, 29.019165%)" d="M 652.671875 688.40625 L 668.953125 713.683594 L 660.003906 685.1875 Z M 652.671875 688.40625 " fill-opacity="1" fill-rule="nonzero"/><path fill="rgb(63.529968%, 8.239746%, 14.898682%)" d="M 652.671875 688.40625 L 644.75 699.867188 L 651.5625 723.445312 L 668.953125 713.683594 L 652.671875 688.40625 " fill-opacity="1" fill-rule="nonzero"/><path fill="rgb(63.529968%, 8.239746%, 14.898682%)" d="M 676.410156 740.628906 L 691.3125 739.671875 L 679.34375 725.757812 Z M 676.410156 740.628906 " fill-opacity="1" fill-rule="nonzero"/><path fill="rgb(63.529968%, 8.239746%, 14.898682%)" d="M 591.078125 670.359375 L 619.507812 707.019531 L 613.800781 744.636719 Z M 591.078125 670.359375 " fill-opacity="1" fill-rule="nonzero"/><path fill="rgb(84.709167%, 12.939453%, 20.779419%)" d="M 636.265625 743.199219 L 679.34375 725.757812 L 676.855469 740.933594 Z M 636.265625 743.199219 " fill-opacity="1" fill-rule="nonzero"/><path fill="rgb(94.898987%, 34.118652%, 45.878601%)" d="M 624.917969 654.160156 L 640.339844 660.878906 L 609.417969 670.71875 L 607.660156 661.039062 L 624.917969 654.160156 " fill-opacity="1" fill-rule="nonzero"/><g clip-path="url(#id1)"><path fill="rgb(93.728638%, 17.649841%, 23.139954%)" d="M 1037.8125 1.746094 L 1051.523438 46.546875 L 1129.035156 41.582031 C 1129.035156 41.582031 1134.058594 9.550781 1128.890625 1.746094 L 1037.8125 1.746094 " fill-opacity="1" fill-rule="nonzero"/></g><g clip-path="url(#id2)"><path fill="rgb(84.709167%, 12.939453%, 20.779419%)" d="M 1082.496094 1.746094 L 1051.523438 46.546875 L 1106.671875 15.59375 L 1097.75 1.746094 L 1082.496094 1.746094 " fill-opacity="1" fill-rule="nonzero"/></g><g clip-path="url(#id3)"><path fill="rgb(75.689697%, 11.759949%, 18.03894%)" d="M 1058.308594 1.746094 L 1051.523438 46.546875 L 1082.496094 1.746094 Z M 1058.308594 1.746094 " fill-opacity="1" fill-rule="nonzero"/></g><g clip-path="url(#id4)"><path fill="rgb(94.119263%, 23.139954%, 29.019165%)" d="M 1129.277344 1.746094 L 1111.207031 1.746094 L 1106.671875 15.59375 L 1129.035156 41.582031 C 1129.035156 41.582031 1134.433594 9.660156 1132.183594 4.886719 L 1129.277344 1.746094 " fill-opacity="1" fill-rule="nonzero"/></g><g clip-path="url(#id5)"><path fill="rgb(94.898987%, 34.118652%, 45.878601%)" d="M 1111.207031 1.746094 L 1109.316406 7.519531 L 1130.964844 3.570312 L 1129.277344 1.746094 L 1111.207031 1.746094 " fill-opacity="1" fill-rule="nonzero"/></g><g clip-path="url(#id6)"><path fill="rgb(94.119263%, 23.139954%, 29.019165%)" d="M 1097.75 1.746094 L 1106.671875 15.59375 L 1102.320312 1.746094 Z M 1097.75 1.746094 " fill-opacity="1" fill-rule="nonzero"/></g><g clip-path="url(#id7)"><path fill="rgb(63.529968%, 8.239746%, 14.898682%)" d="M 1082.496094 1.746094 L 1082.46875 1.777344 L 1089.28125 25.355469 L 1106.671875 15.59375 L 1097.75 1.746094 L 1082.496094 1.746094 " fill-opacity="1" fill-rule="nonzero"/></g><path fill="rgb(63.529968%, 8.239746%, 14.898682%)" d="M 1114.132812 42.539062 L 1129.035156 41.582031 L 1117.0625 27.667969 Z M 1114.132812 42.539062 " fill-opacity="1" fill-rule="nonzero"/><g clip-path="url(#id8)"><path fill="rgb(63.529968%, 8.239746%, 14.898682%)" d="M 1037.8125 1.746094 L 1051.523438 46.546875 L 1057.226562 8.929688 L 1051.65625 1.746094 L 1037.8125 1.746094 " fill-opacity="1" fill-rule="nonzero"/></g><path fill="rgb(84.709167%, 12.939453%, 20.779419%)" d="M 1073.992188 45.113281 L 1117.0625 27.667969 L 1114.578125 42.84375 Z M 1073.992188 45.113281 " fill-opacity="1" fill-rule="nonzero"/><g clip-path="url(#id9)"><path fill="rgb(93.728638%, 17.649841%, 23.139954%)" d="M 937.902344 815.386719 C 929.671875 806.546875 918.265625 795.347656 918.265625 795.347656 C 918.265625 795.347656 891.375 782.886719 882.613281 780.339844 C 873.859375 777.792969 844.976562 794.214844 844.976562 794.214844 L 851.460938 815.386719 L 937.902344 815.386719 " fill-opacity="1" fill-rule="nonzero"/></g><g clip-path="url(#id10)"><path fill="rgb(75.689697%, 11.759949%, 18.03894%)" d="M 904.417969 815.386719 L 906.578125 812.253906 L 877.183594 805.953125 L 875.757812 815.386719 L 904.417969 815.386719 " fill-opacity="1" fill-rule="nonzero"/></g><g clip-path="url(#id11)"><path fill="rgb(95.289612%, 38.42926%, 42.749023%)" d="M 907.097656 790.289062 L 906.578125 812.253906 L 926.460938 803.523438 L 918.0625 795.0625 L 907.097656 790.289062 " fill-opacity="1" fill-rule="nonzero"/></g><path fill="rgb(94.119263%, 23.139954%, 29.019165%)" d="M 844.976562 794.214844 L 877.183594 805.953125 L 894.246094 784.734375 L 880.644531 778.535156 C 880.644531 778.535156 855.066406 785.113281 844.976562 794.214844 " fill-opacity="1" fill-rule="nonzero"/><path fill="rgb(93.728638%, 17.649841%, 23.139954%)" d="M 861.558594 784.894531 C 855.300781 787.449219 848.941406 790.632812 844.976562 794.214844 L 864.566406 801.355469 C 863.566406 795.867188 862.558594 790.382812 861.558594 784.894531 " fill-opacity="1" fill-rule="nonzero"/><g clip-path="url(#id12)"><path fill="rgb(94.119263%, 23.139954%, 29.019165%)" d="M 937.761719 815.386719 L 932.117188 809.296875 L 930.117188 815.386719 Z M 937.761719 815.386719 " fill-opacity="1" fill-rule="nonzero"/><path fill="rgb(94.898987%, 34.118652%, 45.878601%)" d="M 937.761719 815.386719 L 932.117188 809.296875 L 930.117188 815.386719 Z M 937.761719 815.386719 " fill-opacity="1" fill-rule="nonzero"/></g><g clip-path="url(#id13)"><path fill="rgb(94.119263%, 23.139954%, 29.019165%)" d="M 915.902344 815.386719 L 913.902344 809.035156 L 906.578125 812.253906 L 908.59375 815.386719 L 915.902344 815.386719 " fill-opacity="1" fill-rule="nonzero"/></g><g clip-path="url(#id14)"><path fill="rgb(63.529968%, 8.239746%, 14.898682%)" d="M 861.398438 815.386719 L 844.976562 794.214844 L 851.460938 815.386719 Z M 861.398438 815.386719 " fill-opacity="1" fill-rule="nonzero"/></g><path fill="rgb(94.898987%, 34.118652%, 45.878601%)" d="M 878.824219 778.003906 L 894.246094 784.734375 L 863.332031 794.574219 L 861.558594 784.894531 L 878.824219 778.003906 " fill-opacity="1" fill-rule="nonzero"/><g clip-path="url(#id15)"><path fill="rgb(93.728638%, 17.649841%, 23.139954%)" d="M 129.964844 1.746094 L 138.390625 29.253906 L 215.894531 24.28125 C 215.894531 24.28125 217.714844 12.6875 218.035156 1.746094 L 129.964844 1.746094 " fill-opacity="1" fill-rule="nonzero"/></g><g clip-path="url(#id16)"><path fill="rgb(84.709167%, 12.939453%, 20.779419%)" d="M 157.390625 1.746094 L 138.390625 29.253906 L 187.382812 1.746094 Z M 157.390625 1.746094 " fill-opacity="1" fill-rule="nonzero"/></g><g clip-path="url(#id17)"><path fill="rgb(75.689697%, 11.759949%, 18.03894%)" d="M 142.554688 1.746094 L 138.390625 29.253906 L 157.390625 1.746094 Z M 142.554688 1.746094 " fill-opacity="1" fill-rule="nonzero"/></g><g clip-path="url(#id18)"><path fill="rgb(94.119263%, 23.139954%, 29.019165%)" d="M 196.496094 1.746094 L 215.894531 24.28125 C 215.894531 24.28125 217.933594 12.164062 218.984375 1.746094 L 196.496094 1.746094 " fill-opacity="1" fill-rule="nonzero"/></g><g clip-path="url(#id19)"><path fill="rgb(63.529968%, 8.239746%, 14.898682%)" d="M 174.316406 1.746094 L 176.132812 8.054688 L 187.382812 1.746094 Z M 174.316406 1.746094 " fill-opacity="1" fill-rule="nonzero"/></g><path fill="rgb(63.529968%, 8.239746%, 14.898682%)" d="M 200.980469 25.238281 L 215.894531 24.28125 L 203.914062 10.375 Z M 200.980469 25.238281 " fill-opacity="1" fill-rule="nonzero"/><g clip-path="url(#id20)"><path fill="rgb(63.529968%, 8.239746%, 14.898682%)" d="M 129.964844 1.746094 L 138.390625 29.253906 L 142.546875 1.746094 Z M 129.964844 1.746094 " fill-opacity="1" fill-rule="nonzero"/></g><path fill="rgb(84.709167%, 12.939453%, 20.779419%)" d="M 160.84375 27.808594 L 203.914062 10.375 L 201.433594 25.542969 Z M 160.84375 27.808594 " fill-opacity="1" fill-rule="nonzero"/><g clip-path="url(#id21)"><path fill="rgb(93.728638%, 17.649841%, 23.139954%)" d="M 259.316406 815.386719 L 278.746094 714.539062 C 278.746094 714.539062 218.042969 688.128906 201.226562 695.039062 C 184.40625 701.945312 133.761719 732.335938 133.761719 732.335938 C 133.761719 732.335938 96.242188 777.972656 86.9375 793.582031 C 84.355469 797.925781 83.820312 806.003906 84.382812 815.386719 L 259.316406 815.386719 " fill-opacity="1" fill-rule="nonzero"/></g><g clip-path="url(#id22)"><path fill="rgb(84.709167%, 12.939453%, 20.779419%)" d="M 236.003906 815.386719 L 217.421875 744.644531 L 160.507812 763.359375 L 205.351562 815.386719 L 236.003906 815.386719 " fill-opacity="1" fill-rule="nonzero"/></g><g clip-path="url(#id23)"><path fill="rgb(75.689697%, 11.759949%, 18.03894%)" d="M 205.351562 815.386719 L 160.507812 763.359375 L 134.382812 815.386719 Z M 205.351562 815.386719 " fill-opacity="1" fill-rule="nonzero"/></g><path fill="rgb(95.289612%, 38.42926%, 42.749023%)" d="M 118.414062 751.34375 L 160.507812 763.359375 L 153.636719 720.632812 L 133.097656 732.589844 L 118.414062 751.34375 " fill-opacity="1" fill-rule="nonzero"/><g clip-path="url(#id24)"><path fill="rgb(94.119263%, 23.139954%, 29.019165%)" d="M 132.476562 815.386719 L 101.242188 773.339844 L 82.476562 796.480469 C 82.476562 796.480469 82.449219 804.355469 83.148438 815.386719 L 132.476562 815.386719 " fill-opacity="1" fill-rule="nonzero"/></g><path fill="rgb(94.119263%, 23.139954%, 29.019165%)" d="M 217.421875 744.644531 L 278.746094 714.539062 C 278.746094 714.539062 219.90625 688.097656 209.574219 690.046875 L 167.613281 712.617188 L 217.421875 744.644531 " fill-opacity="1" fill-rule="nonzero"/><path fill="rgb(94.898987%, 34.118652%, 45.878601%)" d="M 206.425781 691.75 L 167.613281 712.617188 L 203.183594 735.488281 Z M 206.425781 691.75 " fill-opacity="1" fill-rule="nonzero"/><path fill="rgb(94.119263%, 23.139954%, 29.019165%)" d="M 160.507812 763.359375 L 217.421875 744.644531 L 157.972656 747.613281 Z M 160.507812 763.359375 " fill-opacity="1" fill-rule="nonzero"/><path fill="rgb(63.529968%, 8.239746%, 14.898682%)" d="M 160.507812 763.359375 L 178.644531 784.40625 L 227.519531 783.089844 L 217.421875 744.644531 L 160.507812 763.359375 " fill-opacity="1" fill-rule="nonzero"/><path fill="rgb(63.529968%, 8.239746%, 14.898682%)" d="M 273.117188 743.773438 L 278.746094 714.539062 L 245.925781 730.664062 Z M 273.117188 743.773438 " fill-opacity="1" fill-rule="nonzero"/><g clip-path="url(#id25)"><path fill="rgb(84.709167%, 12.939453%, 20.779419%)" d="M 259.382812 815.386719 L 273.933594 743.074219 L 245.925781 730.664062 L 257.011719 815.386719 L 259.382812 815.386719 " fill-opacity="1" fill-rule="nonzero"/></g><g clip-path="url(#id26)"><path fill="rgb(94.898987%, 34.118652%, 45.878601%)" d="M 103.5 815.386719 L 101.242188 773.339844 L 80.535156 799.734375 L 82.507812 815.386719 L 103.5 815.386719 " fill-opacity="1" fill-rule="nonzero"/></g><path fill="rgb(93.728638%, 17.649841%, 23.139954%)" d="M 75.839844 260.992188 C 59.457031 259.101562 9.339844 260.648438 0.199219 260.949219 L 0.199219 417.0625 L 35.113281 434.464844 L 134.265625 315.566406 C 134.265625 315.566406 93.90625 263.082031 75.839844 260.992188 " fill-opacity="1" fill-rule="nonzero"/><path fill="rgb(84.709167%, 12.939453%, 20.779419%)" d="M 35.113281 434.464844 L 66.027344 312.246094 L 7.164062 301.097656 Z M 35.113281 434.464844 " fill-opacity="1" fill-rule="nonzero"/><path fill="rgb(75.689697%, 11.759949%, 18.03894%)" d="M 0.199219 389.570312 L 35.113281 434.464844 L 7.164062 301.097656 L 0.199219 305.871094 L 0.199219 389.570312 " fill-opacity="1" fill-rule="nonzero"/><path fill="rgb(95.289612%, 38.42926%, 42.749023%)" d="M 0.199219 260.855469 L 0.199219 294.164062 L 7.164062 301.097656 L 21.816406 260.371094 L 0.199219 260.855469 " fill-opacity="1" fill-rule="nonzero"/><path fill="rgb(94.119263%, 23.139954%, 29.019165%)" d="M 66.027344 312.246094 L 134.265625 315.566406 C 134.265625 315.566406 95.554688 263.957031 85.566406 260.671875 L 37.925781 260.117188 L 66.027344 312.246094 " fill-opacity="1" fill-rule="nonzero"/><path fill="rgb(94.898987%, 34.118652%, 45.878601%)" d="M 81.980469 260.628906 L 37.925781 260.117188 L 57.988281 297.339844 Z M 81.980469 260.628906 " fill-opacity="1" fill-rule="nonzero"/><path fill="rgb(94.119263%, 23.139954%, 29.019165%)" d="M 7.164062 301.097656 L 66.027344 312.246094 L 12.566406 286.082031 Z M 7.164062 301.097656 " fill-opacity="1" fill-rule="nonzero"/><path fill="rgb(63.529968%, 8.239746%, 14.898682%)" d="M 7.164062 301.097656 L 12.859375 328.296875 L 56.28125 350.78125 L 66.027344 312.246094 L 7.164062 301.097656 " fill-opacity="1" fill-rule="nonzero"/><path fill="rgb(63.529968%, 8.239746%, 14.898682%)" d="M 115.203125 338.429688 L 134.265625 315.566406 L 97.730469 313.792969 Z M 115.203125 338.429688 " fill-opacity="1" fill-rule="nonzero"/><path fill="rgb(63.529968%, 8.239746%, 14.898682%)" d="M 0.199219 389.578125 L 0.199219 417.0625 L 35.113281 434.464844 Z M 0.199219 389.578125 " fill-opacity="1" fill-rule="nonzero"/><path fill="rgb(84.709167%, 12.939453%, 20.779419%)" d="M 63.84375 400.003906 L 97.730469 313.792969 L 116.253906 338.203125 Z M 63.84375 400.003906 " fill-opacity="1" fill-rule="nonzero"/><g clip-path="url(#id27)"><path fill="rgb(93.728638%, 17.649841%, 23.139954%)" d="M 1207.335938 241.121094 C 1190.425781 248 1159.148438 261.015625 1147.917969 267.570312 C 1132.226562 276.738281 1116.332031 341.019531 1116.332031 341.019531 L 1207.335938 386.375 L 1207.335938 241.121094 " fill-opacity="1" fill-rule="nonzero"/></g><g clip-path="url(#id28)"><path fill="rgb(75.689697%, 11.759949%, 18.03894%)" d="M 1207.335938 290.132812 L 1177.488281 310.574219 L 1207.335938 348.941406 Z M 1207.335938 290.132812 " fill-opacity="1" fill-rule="nonzero"/></g><g clip-path="url(#id29)"><path fill="rgb(95.289612%, 38.42926%, 42.749023%)" d="M 1207.335938 240.96875 L 1195.894531 245.824219 L 1207.335938 257.210938 Z M 1207.335938 240.96875 " fill-opacity="1" fill-rule="nonzero"/></g><path fill="rgb(94.119263%, 23.139954%, 29.019165%)" d="M 1116.332031 341.019531 L 1177.488281 310.574219 L 1170.238281 256.773438 L 1142.617188 267.949219 C 1142.617188 267.949219 1117.019531 313.953125 1116.332031 341.019531 " fill-opacity="1" fill-rule="nonzero"/><path fill="rgb(93.728638%, 17.649841%, 23.139954%)" d="M 1125.625 304.265625 C 1120.71875 316.820312 1116.601562 330.378906 1116.332031 341.019531 L 1153.53125 322.507812 C 1144.230469 316.421875 1134.921875 310.347656 1125.625 304.265625 " fill-opacity="1" fill-rule="nonzero"/><g clip-path="url(#id30)"><path fill="rgb(63.529968%, 8.239746%, 14.898682%)" d="M 1207.335938 350.117188 L 1116.332031 341.019531 L 1207.335938 386.375 Z M 1207.335938 350.117188 " fill-opacity="1" fill-rule="nonzero"/></g><path fill="rgb(94.898987%, 34.118652%, 45.878601%)" d="M 1139.351562 269.855469 L 1170.238281 256.773438 L 1142.03125 314.996094 L 1125.625 304.265625 L 1139.351562 269.855469 " fill-opacity="1" fill-rule="nonzero"/><path fill="rgb(92.549133%, 51.759338%, 19.219971%)" d="M 273.226562 534.320312 L 256.980469 548.050781 L 249.488281 535.65625 L 267.925781 527.589844 L 273.226562 534.320312 " fill-opacity="1" fill-rule="nonzero"/><path fill="rgb(92.549133%, 51.759338%, 19.219971%)" d="M 442.75 285.359375 L 426.503906 299.089844 L 419.011719 286.695312 L 437.457031 278.628906 L 442.75 285.359375 " fill-opacity="1" fill-rule="nonzero"/><path fill="rgb(92.549133%, 51.759338%, 19.219971%)" d="M 87.757812 157.269531 L 60.515625 141.320312 L 74.140625 124.710938 L 94.546875 146.53125 L 87.757812 157.269531 " fill-opacity="1" fill-rule="nonzero"/><path fill="rgb(92.549133%, 51.759338%, 19.219971%)" d="M 879.804688 697.382812 L 863.550781 711.121094 L 856.058594 698.726562 L 874.503906 690.652344 L 879.804688 697.382812 " fill-opacity="1" fill-rule="nonzero"/><path fill="rgb(92.549133%, 51.759338%, 19.219971%)" d="M 891.667969 405.207031 L 875.421875 418.945312 L 867.925781 406.550781 L 886.367188 398.484375 L 891.667969 405.207031 " fill-opacity="1" fill-rule="nonzero"/><path fill="rgb(92.549133%, 51.759338%, 19.219971%)" d="M 985.015625 115.1875 L 968.769531 128.917969 L 961.273438 116.523438 L 979.722656 108.457031 L 985.015625 115.1875 " fill-opacity="1" fill-rule="nonzero"/><path fill="rgb(92.549133%, 51.759338%, 19.219971%)" d="M 343.394531 741.191406 L 327.140625 754.929688 L 319.648438 742.539062 L 338.09375 734.460938 L 343.394531 741.191406 " fill-opacity="1" fill-rule="nonzero"/><path fill="rgb(98.81897%, 81.959534%, 22.349548%)" d="M 249.796875 462.578125 L 217.304688 462.578125 L 210.273438 445.3125 L 227.578125 434.058594 L 249.796875 462.578125 " fill-opacity="1" fill-rule="nonzero"/><path fill="rgb(98.81897%, 81.959534%, 22.349548%)" d="M 1122.867188 122.71875 L 1090.382812 122.71875 L 1083.34375 105.441406 L 1100.65625 94.199219 L 1122.867188 122.71875 " fill-opacity="1" fill-rule="nonzero"/><path fill="rgb(98.81897%, 81.959534%, 22.349548%)" d="M 44.328125 739.503906 L 11.828125 739.503906 L 4.796875 722.226562 L 22.109375 710.984375 L 44.328125 739.503906 " fill-opacity="1" fill-rule="nonzero"/><path fill="rgb(98.81897%, 81.959534%, 22.349548%)" d="M 1202.742188 747.578125 L 1170.238281 747.578125 L 1163.214844 730.304688 L 1180.519531 719.058594 L 1202.742188 747.578125 " fill-opacity="1" fill-rule="nonzero"/><path fill="rgb(92.939758%, 69.40918%, 47.839355%)" d="M 91.589844 527.128906 L 131.113281 507.355469 L 133.0625 517.246094 L 104.871094 543.335938 L 91.589844 527.128906 " fill-opacity="1" fill-rule="nonzero"/><path fill="rgb(92.939758%, 69.40918%, 47.839355%)" d="M 718.808594 397.289062 L 758.332031 377.527344 L 760.28125 387.410156 L 732.089844 413.5 L 718.808594 397.289062 " fill-opacity="1" fill-rule="nonzero"/><path fill="rgb(92.939758%, 69.40918%, 47.839355%)" d="M 859.066406 753.089844 L 898.597656 733.320312 L 900.539062 743.199219 L 872.347656 769.292969 L 859.066406 753.089844 " fill-opacity="1" fill-rule="nonzero"/><path fill="rgb(92.939758%, 69.40918%, 47.839355%)" d="M 991.9375 169.191406 L 1031.460938 149.429688 L 1033.410156 159.3125 L 1005.21875 185.402344 L 991.9375 169.191406 " fill-opacity="1" fill-rule="nonzero"/><path fill="rgb(92.939758%, 69.40918%, 47.839355%)" d="M 650.421875 140.675781 L 689.945312 120.902344 L 691.894531 130.792969 L 663.703125 156.882812 L 650.421875 140.675781 " fill-opacity="1" fill-rule="nonzero"/><path fill="rgb(92.939758%, 69.40918%, 47.839355%)" d="M 298.914062 187.183594 L 338.441406 167.410156 L 340.390625 177.292969 L 312.195312 203.382812 L 298.914062 187.183594 " fill-opacity="1" fill-rule="nonzero"/><path fill="rgb(93.328857%, 13.729858%, 23.139954%)" d="M 276.484375 346.414062 L 280.953125 361.964844 L 262.480469 377.527344 L 256.644531 343.007812 L 276.484375 346.414062 " fill-opacity="1" fill-rule="nonzero"/><path fill="rgb(90.589905%, 29.019165%, 22.749329%)" d="M 190.507812 616.546875 L 190.507812 655.4375 L 206.550781 642.890625 Z M 190.507812 616.546875 " fill-opacity="1" fill-rule="nonzero"/><path fill="rgb(92.549133%, 51.759338%, 19.219971%)" d="M 709.726562 239.144531 L 693.472656 252.882812 L 685.988281 240.488281 L 704.425781 232.414062 L 709.726562 239.144531 " fill-opacity="1" fill-rule="nonzero"/><path fill="rgb(98.81897%, 81.959534%, 22.349548%)" d="M 419.699219 167.410156 L 387.195312 167.410156 L 380.175781 150.144531 L 397.480469 138.894531 L 419.699219 167.410156 " fill-opacity="1" fill-rule="nonzero"/><path fill="rgb(92.939758%, 69.40918%, 47.839355%)" d="M 478.5625 272.65625 L 518.085938 252.882812 L 520.035156 262.765625 L 491.84375 288.855469 L 478.5625 272.65625 " fill-opacity="1" fill-rule="nonzero"/><path fill="rgb(93.328857%, 13.729858%, 23.139954%)" d="M 712.972656 51.246094 L 717.449219 66.796875 L 698.976562 82.359375 L 693.144531 47.84375 L 712.972656 51.246094 " fill-opacity="1" fill-rule="nonzero"/><path fill="rgb(90.589905%, 29.019165%, 22.749329%)" d="M 627.007812 321.382812 L 627.007812 360.269531 L 643.042969 347.722656 Z M 627.007812 321.382812 " fill-opacity="1" fill-rule="nonzero"/><path fill="rgb(92.549133%, 51.759338%, 19.219971%)" d="M 1075.621094 562.679688 L 1059.375 576.417969 L 1051.882812 564.023438 L 1070.324219 555.949219 L 1075.621094 562.679688 " fill-opacity="1" fill-rule="nonzero"/><path fill="rgb(98.81897%, 81.959534%, 22.349548%)" d="M 1012.675781 490.945312 L 980.175781 490.945312 L 973.144531 473.671875 L 990.457031 462.425781 L 1012.675781 490.945312 " fill-opacity="1" fill-rule="nonzero"/><path fill="rgb(92.939758%, 69.40918%, 47.839355%)" d="M 893.984375 555.488281 L 933.511719 535.722656 L 935.460938 545.605469 L 907.265625 571.695312 L 893.984375 555.488281 " fill-opacity="1" fill-rule="nonzero"/><path fill="rgb(93.328857%, 13.729858%, 23.139954%)" d="M 1078.882812 374.78125 L 1083.34375 390.332031 L 1064.878906 405.886719 L 1059.039062 371.375 L 1078.882812 374.78125 " fill-opacity="1" fill-rule="nonzero"/><path fill="rgb(90.589905%, 29.019165%, 22.749329%)" d="M 992.902344 644.90625 L 992.902344 683.804688 L 1008.949219 671.257812 Z M 992.902344 644.90625 " fill-opacity="1" fill-rule="nonzero"/><path fill="rgb(90.589905%, 29.019165%, 22.749329%)" d="M 125.039062 252.882812 L 125.039062 291.769531 L 141.085938 279.234375 Z M 125.039062 252.882812 " fill-opacity="1" fill-rule="nonzero"/><path fill="rgb(92.549133%, 51.759338%, 19.219971%)" d="M 619.230469 464 L 627.914062 483.425781 L 613.929688 487.179688 L 611.289062 467.21875 L 619.230469 464 " fill-opacity="1" fill-rule="nonzero"/><path fill="rgb(98.81897%, 81.959534%, 22.349548%)" d="M 532.863281 504.574219 L 523.832031 535.808594 L 505.292969 537.765625 L 499.292969 518.011719 L 532.863281 504.574219 " fill-opacity="1" fill-rule="nonzero"/><path fill="rgb(92.939758%, 69.40918%, 47.839355%)" d="M 561.894531 636.546875 L 553.890625 593.070312 L 563.929688 593.953125 L 581.15625 628.277344 L 561.894531 636.546875 " fill-opacity="1" fill-rule="nonzero"/><path fill="rgb(93.328857%, 13.729858%, 23.139954%)" d="M 439.660156 408.710938 L 455.839844 408.734375 L 465.65625 430.800781 L 430.886719 426.824219 L 439.660156 408.710938 " fill-opacity="1" fill-rule="nonzero"/><path fill="rgb(90.589905%, 29.019165%, 22.749329%)" d="M 739.550781 429.457031 L 776.890625 440.253906 L 769.304688 421.355469 Z M 739.550781 429.457031 " fill-opacity="1" fill-rule="nonzero"/></svg>