<svg xmlns="http://www.w3.org/2000/svg" xmlns:xlink="http://www.w3.org/1999/xlink" width="1610" zoomAndPan="magnify" viewBox="0 0 1207.5 305.999988" height="408" preserveAspectRatio="xMidYMid meet" version="1.0"><defs><g/><clipPath id="id1"><path d="M 0 11 L 1207 11 L 1207 187 L 0 187 Z M 0 11 " clip-rule="nonzero"/></clipPath><clipPath id="id2"><path d="M 307 143 L 902 143 L 902 305.9375 L 307 305.9375 Z M 307 143 " clip-rule="nonzero"/></clipPath></defs><g fill="rgb(62.348938%, 24.708557%, 45.098877%)" fill-opacity="1"><g transform="translate(11.539033, 159.486479)"><g><path d="M 43.914062 1.457031 C 54.269531 1.457031 63.023438 -1.457031 70.171875 -7.292969 C 77.320312 -13.128906 80.96875 -20.863281 80.96875 -30.636719 C 80.96875 -36.035156 79.949219 -40.847656 78.199219 -44.933594 C 76.300781 -49.019531 73.820312 -52.230469 70.902344 -54.5625 C 67.839844 -56.898438 64.484375 -59.085938 60.980469 -60.835938 C 57.335938 -62.585938 53.6875 -64.046875 50.1875 -65.214844 C 46.539062 -66.378906 43.183594 -67.691406 40.265625 -69.007812 C 37.203125 -70.171875 34.722656 -71.777344 32.972656 -73.820312 C 31.074219 -75.71875 30.199219 -78.050781 30.199219 -80.675781 C 30.199219 -84.03125 31.21875 -86.660156 33.554688 -88.410156 C 35.742188 -90.160156 38.660156 -91.035156 42.164062 -91.035156 C 48.582031 -91.035156 54.710938 -87.828125 60.253906 -81.554688 L 75.28125 -95.558594 C 71.195312 -100.226562 66.378906 -103.875 60.542969 -106.644531 C 54.710938 -109.417969 48.582031 -110.878906 42.164062 -110.878906 C 32.824219 -110.878906 24.800781 -108.105469 18.089844 -102.5625 C 11.378906 -97.015625 8.023438 -89.140625 8.023438 -79.21875 C 8.023438 -72.363281 9.773438 -66.671875 13.277344 -62.148438 C 16.777344 -57.480469 21.007812 -54.125 25.96875 -51.9375 C 30.929688 -49.75 36.035156 -47.851562 40.996094 -46.101562 C 45.957031 -44.351562 50.1875 -42.308594 53.6875 -39.972656 C 57.1875 -37.492188 58.941406 -34.429688 58.941406 -30.78125 C 58.941406 -27.28125 57.480469 -24.507812 54.855469 -22.46875 C 52.230469 -20.425781 48.582031 -19.550781 44.058594 -19.550781 C 38.953125 -19.550781 34.429688 -20.863281 30.636719 -23.488281 C 26.699219 -26.113281 23.78125 -29.617188 21.882812 -34.136719 L 3.355469 -22.613281 C 6.855469 -15.464844 12.109375 -9.628906 19.402344 -5.253906 C 26.699219 -0.730469 34.867188 1.457031 43.914062 1.457031 Z M 43.914062 1.457031 "/></g></g></g><g fill="rgb(62.348938%, 24.708557%, 45.098877%)" fill-opacity="1"><g transform="translate(96.738758, 159.486479)"><g><path d="M 63.316406 1.457031 C 78.78125 1.457031 92.058594 -3.9375 103 -14.882812 C 113.941406 -25.824219 119.484375 -39.097656 119.484375 -54.710938 C 119.484375 -70.171875 113.941406 -83.449219 103 -94.390625 C 92.058594 -105.332031 78.78125 -110.878906 63.316406 -110.878906 C 47.707031 -110.878906 34.429688 -105.332031 23.488281 -94.390625 C 12.546875 -83.449219 7.148438 -70.171875 7.148438 -54.710938 C 7.148438 -39.097656 12.546875 -25.824219 23.488281 -14.882812 C 34.429688 -3.9375 47.707031 1.457031 63.316406 1.457031 Z M 63.316406 -20.863281 C 53.6875 -20.863281 45.664062 -24.070312 39.246094 -30.636719 C 32.679688 -37.054688 29.46875 -45.082031 29.46875 -54.710938 C 29.46875 -64.191406 32.679688 -72.214844 39.246094 -78.78125 C 45.664062 -85.199219 53.6875 -88.554688 63.316406 -88.554688 C 72.800781 -88.554688 80.824219 -85.199219 87.386719 -78.78125 C 93.808594 -72.214844 97.164062 -64.191406 97.164062 -54.710938 C 97.164062 -45.082031 93.808594 -37.054688 87.386719 -30.636719 C 80.824219 -24.070312 72.800781 -20.863281 63.316406 -20.863281 Z M 63.316406 -20.863281 "/></g></g></g><g fill="rgb(62.348938%, 24.708557%, 45.098877%)" fill-opacity="1"><g transform="translate(223.37122, 159.486479)"><g><path d="M 63.898438 1.457031 C 72.363281 1.457031 80.386719 -0.292969 87.972656 -4.085938 C 95.558594 -7.730469 101.976562 -12.839844 107.230469 -19.257812 L 89.867188 -32.824219 C 83.304688 -24.800781 74.695312 -20.863281 63.898438 -20.863281 C 54.269531 -20.863281 46.246094 -24.070312 39.828125 -30.492188 C 33.261719 -36.910156 30.054688 -45.082031 30.054688 -54.710938 C 30.054688 -64.335938 33.261719 -72.363281 39.828125 -78.78125 C 46.246094 -85.199219 54.269531 -88.554688 63.898438 -88.554688 C 74.695312 -88.554688 83.449219 -84.472656 89.867188 -76.59375 L 107.230469 -90.160156 C 102.125 -96.578125 95.703125 -101.539062 88.117188 -105.332031 C 80.53125 -108.980469 72.363281 -110.878906 63.898438 -110.878906 C 48.289062 -110.878906 35.015625 -105.332031 24.070312 -94.390625 C 13.128906 -83.449219 7.730469 -70.171875 7.730469 -54.710938 C 7.730469 -39.097656 13.128906 -25.824219 24.070312 -14.882812 C 35.015625 -3.9375 48.289062 1.457031 63.898438 1.457031 Z M 63.898438 1.457031 "/></g></g></g><g fill="rgb(62.348938%, 24.708557%, 45.098877%)" fill-opacity="1"><g transform="translate(334.393456, 159.486479)"><g><path d="M 11.964844 0 L 34.722656 0 L 34.722656 -109.417969 L 11.964844 -109.417969 Z M 11.964844 0 "/></g></g></g><g fill="rgb(62.348938%, 24.708557%, 45.098877%)" fill-opacity="1"><g transform="translate(380.932335, 159.486479)"><g><path d="M 87.679688 0 L 112.335938 0 L 68.421875 -109.417969 L 42.890625 -109.417969 L -1.019531 0 L 23.632812 0 L 31.511719 -21.152344 L 79.800781 -21.152344 Z M 38.660156 -40.265625 L 55.730469 -86.074219 L 72.800781 -40.265625 Z M 38.660156 -40.265625 "/></g></g></g><g fill="rgb(62.348938%, 24.708557%, 45.098877%)" fill-opacity="1"><g transform="translate(492.246372, 159.486479)"><g><path d="M 33.847656 -20.277344 L 33.847656 -109.417969 L 11.085938 -109.417969 L 11.085938 0 L 70.609375 0 L 70.609375 -20.277344 Z M 33.847656 -20.277344 "/></g></g></g><g fill="rgb(62.348938%, 24.708557%, 45.098877%)" fill-opacity="1"><g transform="translate(563.294762, 159.486479)"><g/></g></g><g fill="rgb(62.348938%, 24.708557%, 45.098877%)" fill-opacity="1"><g transform="translate(602.101497, 159.486479)"><g><path d="M 63.898438 1.457031 C 72.363281 1.457031 80.386719 -0.292969 87.972656 -4.085938 C 95.558594 -7.730469 101.976562 -12.839844 107.230469 -19.257812 L 89.867188 -32.824219 C 83.304688 -24.800781 74.695312 -20.863281 63.898438 -20.863281 C 54.269531 -20.863281 46.246094 -24.070312 39.828125 -30.492188 C 33.261719 -36.910156 30.054688 -45.082031 30.054688 -54.710938 C 30.054688 -64.335938 33.261719 -72.363281 39.828125 -78.78125 C 46.246094 -85.199219 54.269531 -88.554688 63.898438 -88.554688 C 74.695312 -88.554688 83.449219 -84.472656 89.867188 -76.59375 L 107.230469 -90.160156 C 102.125 -96.578125 95.703125 -101.539062 88.117188 -105.332031 C 80.53125 -108.980469 72.363281 -110.878906 63.898438 -110.878906 C 48.289062 -110.878906 35.015625 -105.332031 24.070312 -94.390625 C 13.128906 -83.449219 7.730469 -70.171875 7.730469 -54.710938 C 7.730469 -39.097656 13.128906 -25.824219 24.070312 -14.882812 C 35.015625 -3.9375 48.289062 1.457031 63.898438 1.457031 Z M 63.898438 1.457031 "/></g></g></g><g fill="rgb(62.348938%, 24.708557%, 45.098877%)" fill-opacity="1"><g transform="translate(713.123733, 159.486479)"><g><path d="M 87.679688 0 L 112.335938 0 L 68.421875 -109.417969 L 42.890625 -109.417969 L -1.019531 0 L 23.632812 0 L 31.511719 -21.152344 L 79.800781 -21.152344 Z M 38.660156 -40.265625 L 55.730469 -86.074219 L 72.800781 -40.265625 Z M 38.660156 -40.265625 "/></g></g></g><g fill="rgb(62.348938%, 24.708557%, 45.098877%)" fill-opacity="1"><g transform="translate(824.43777, 159.486479)"><g><path d="M 43.914062 1.457031 C 54.269531 1.457031 63.023438 -1.457031 70.171875 -7.292969 C 77.320312 -13.128906 80.96875 -20.863281 80.96875 -30.636719 C 80.96875 -36.035156 79.949219 -40.847656 78.199219 -44.933594 C 76.300781 -49.019531 73.820312 -52.230469 70.902344 -54.5625 C 67.839844 -56.898438 64.484375 -59.085938 60.980469 -60.835938 C 57.335938 -62.585938 53.6875 -64.046875 50.1875 -65.214844 C 46.539062 -66.378906 43.183594 -67.691406 40.265625 -69.007812 C 37.203125 -70.171875 34.722656 -71.777344 32.972656 -73.820312 C 31.074219 -75.71875 30.199219 -78.050781 30.199219 -80.675781 C 30.199219 -84.03125 31.21875 -86.660156 33.554688 -88.410156 C 35.742188 -90.160156 38.660156 -91.035156 42.164062 -91.035156 C 48.582031 -91.035156 54.710938 -87.828125 60.253906 -81.554688 L 75.28125 -95.558594 C 71.195312 -100.226562 66.378906 -103.875 60.542969 -106.644531 C 54.710938 -109.417969 48.582031 -110.878906 42.164062 -110.878906 C 32.824219 -110.878906 24.800781 -108.105469 18.089844 -102.5625 C 11.378906 -97.015625 8.023438 -89.140625 8.023438 -79.21875 C 8.023438 -72.363281 9.773438 -66.671875 13.277344 -62.148438 C 16.777344 -57.480469 21.007812 -54.125 25.96875 -51.9375 C 30.929688 -49.75 36.035156 -47.851562 40.996094 -46.101562 C 45.957031 -44.351562 50.1875 -42.308594 53.6875 -39.972656 C 57.1875 -37.492188 58.941406 -34.429688 58.941406 -30.78125 C 58.941406 -27.28125 57.480469 -24.507812 54.855469 -22.46875 C 52.230469 -20.425781 48.582031 -19.550781 44.058594 -19.550781 C 38.953125 -19.550781 34.429688 -20.863281 30.636719 -23.488281 C 26.699219 -26.113281 23.78125 -29.617188 21.882812 -34.136719 L 3.355469 -22.613281 C 6.855469 -15.464844 12.109375 -9.628906 19.402344 -5.253906 C 26.699219 -0.730469 34.867188 1.457031 43.914062 1.457031 Z M 43.914062 1.457031 "/></g></g></g><g fill="rgb(62.348938%, 24.708557%, 45.098877%)" fill-opacity="1"><g transform="translate(909.637506, 159.486479)"><g><path d="M 11.964844 0 L 34.722656 0 L 34.722656 -109.417969 L 11.964844 -109.417969 Z M 11.964844 0 "/></g></g></g><g fill="rgb(62.348938%, 24.708557%, 45.098877%)" fill-opacity="1"><g transform="translate(956.17643, 159.486479)"><g><path d="M 89.578125 -109.417969 L 89.578125 -34.136719 L 34.429688 -109.417969 L 11.085938 -109.417969 L 11.085938 0 L 33.847656 0 L 33.847656 -75.570312 L 88.847656 0 L 112.191406 0 L 112.191406 -109.417969 Z M 89.578125 -109.417969 "/></g></g></g><g fill="rgb(62.348938%, 24.708557%, 45.098877%)" fill-opacity="1"><g transform="translate(1079.453468, 159.486479)"><g><path d="M 63.316406 1.457031 C 78.78125 1.457031 92.058594 -3.9375 103 -14.882812 C 113.941406 -25.824219 119.484375 -39.097656 119.484375 -54.710938 C 119.484375 -70.171875 113.941406 -83.449219 103 -94.390625 C 92.058594 -105.332031 78.78125 -110.878906 63.316406 -110.878906 C 47.707031 -110.878906 34.429688 -105.332031 23.488281 -94.390625 C 12.546875 -83.449219 7.148438 -70.171875 7.148438 -54.710938 C 7.148438 -39.097656 12.546875 -25.824219 23.488281 -14.882812 C 34.429688 -3.9375 47.707031 1.457031 63.316406 1.457031 Z M 63.316406 -20.863281 C 53.6875 -20.863281 45.664062 -24.070312 39.246094 -30.636719 C 32.679688 -37.054688 29.46875 -45.082031 29.46875 -54.710938 C 29.46875 -64.191406 32.679688 -72.214844 39.246094 -78.78125 C 45.664062 -85.199219 53.6875 -88.554688 63.316406 -88.554688 C 72.800781 -88.554688 80.824219 -85.199219 87.386719 -78.78125 C 93.808594 -72.214844 97.164062 -64.191406 97.164062 -54.710938 C 97.164062 -45.082031 93.808594 -37.054688 87.386719 -30.636719 C 80.824219 -24.070312 72.800781 -20.863281 63.316406 -20.863281 Z M 63.316406 -20.863281 "/></g></g></g><g clip-path="url(#id1)"><path stroke-linecap="butt" transform="matrix(0.749234, 0, 0, 0.749234, 0.000000000000085265, 21.947393)" fill="none" stroke-linejoin="miter" d="M 66.442878 177.949853 C 80.279931 177.949853 91.927246 174.050036 101.478671 166.255615 C 111.035309 158.45598 115.884012 148.143361 115.884012 135.114426 C 115.884012 127.888294 114.554529 121.470279 112.1771 116.006364 C 109.658903 110.584158 106.374297 106.308957 102.479693 103.170334 C 98.392184 100.078633 93.871941 97.132916 89.216143 94.80241 C 84.36744 92.471904 79.471814 90.527209 74.810802 88.957897 C 69.962098 87.388586 65.447069 85.626369 61.547252 83.916289 C 57.459743 82.346977 54.180351 80.209377 51.849845 77.451351 C 49.284724 74.933153 48.142933 71.841453 48.142933 68.322233 C 48.142933 63.854126 49.519339 60.334906 52.611039 58.009614 C 55.556757 55.679108 59.409651 54.490394 64.112372 54.490394 C 72.673201 54.490394 80.84822 58.770808 88.262044 67.133518 L 108.324206 48.452976 C 102.860291 42.222653 96.442276 37.373949 88.642641 33.667037 C 80.84822 29.960125 72.673201 28.010217 64.112372 28.010217 C 51.656939 28.010217 40.916801 31.717129 31.975374 39.136166 C 22.992239 46.503067 18.524133 57.008591 18.524133 70.272141 C 18.524133 79.401259 20.854638 87.007989 25.562573 93.045407 C 30.218371 99.270516 35.875192 103.738622 42.486112 106.689554 C 49.091819 109.588349 55.937354 112.153469 62.543061 114.483975 C 69.153981 116.814481 74.810802 119.525584 79.471814 122.658993 C 84.174534 125.943599 86.50504 130.031108 86.50504 134.926734 C 86.50504 139.582532 84.555132 143.294658 81.035911 146.000547 C 77.521905 148.758573 72.673201 149.900365 66.635784 149.900365 C 59.837171 149.900365 53.799754 148.143361 48.711222 144.671064 C 43.481921 141.151844 39.582104 136.496046 37.016983 130.458628 L 12.299023 145.812856 C 17.001744 155.369494 23.993262 163.163915 33.737591 169.013641 C 43.481921 175.051059 54.368042 177.949853 66.442878 177.949853 Z M 206.069896 177.949853 C 226.700347 177.949853 244.432004 170.723721 259.025037 156.130688 C 273.623284 141.532441 281.037108 123.800785 281.037108 102.977428 C 281.037108 82.346977 273.623284 64.615321 259.025037 50.022287 C 244.432004 35.429254 226.700347 28.010217 206.069896 28.010217 C 185.199617 28.010217 167.514883 35.429254 152.869714 50.022287 C 138.27668 64.615321 131.097471 82.346977 131.097471 102.977428 C 131.097471 123.800785 138.27668 141.532441 152.869714 156.130688 C 167.514883 170.723721 185.199617 177.949853 206.069896 177.949853 Z M 206.069896 148.143361 C 193.186943 148.143361 182.488514 143.862947 173.932898 135.114426 C 165.184378 126.558811 160.85704 115.813458 160.85704 102.977428 C 160.85704 90.334304 165.184378 79.588951 173.932898 70.845644 C 182.488514 62.284815 193.186943 57.816709 206.069896 57.816709 C 218.713021 57.816709 229.41145 62.284815 238.154758 70.845644 C 246.76251 79.588951 251.230616 90.334304 251.230616 102.977428 C 251.230616 115.813458 246.76251 126.558811 238.154758 135.114426 C 229.41145 143.862947 218.713021 148.143361 206.069896 148.143361 Z M 375.847508 177.949853 C 387.161149 177.949853 397.854365 175.619348 407.979292 170.530816 C 418.109433 165.682112 426.665048 158.8835 433.698275 150.280962 L 410.502703 132.168708 C 401.754183 142.914061 390.247636 148.143361 375.847508 148.143361 C 363.011478 148.143361 352.266126 143.862947 343.71051 135.307331 C 334.961989 126.751716 330.681575 115.813458 330.681575 102.977428 C 330.681575 90.146612 334.961989 79.401259 343.71051 70.845644 C 352.266126 62.284815 363.011478 57.816709 375.847508 57.816709 C 390.247636 57.816709 401.941874 63.238915 410.502703 73.791362 L 433.698275 55.679108 C 426.85274 47.07657 418.297125 40.465649 408.172198 35.429254 C 398.047271 30.528414 387.161149 28.010217 375.847508 28.010217 C 355.024151 28.010217 337.292495 35.429254 322.694248 50.022287 C 308.101215 64.615321 300.875083 82.346977 300.875083 102.977428 C 300.875083 123.800785 308.101215 141.532441 322.694248 156.130688 C 337.292495 170.723721 355.024151 177.949853 375.847508 177.949853 Z M 454.714537 175.999945 L 485.089318 175.999945 L 485.089318 29.960125 L 454.714537 29.960125 Z M 617.896869 175.999945 L 650.795061 175.999945 L 592.177886 29.960125 L 558.09098 29.960125 L 499.479018 175.999945 L 532.424134 175.999945 L 542.929658 147.762764 L 607.391345 147.762764 Z M 552.434159 122.278396 L 575.254347 61.0961 L 598.027612 122.278396 Z M 694.589802 148.951479 L 694.589802 29.960125 L 664.209808 29.960125 L 664.209808 175.999945 L 743.650339 175.999945 L 743.650339 148.951479 Z M 881.332662 177.949853 C 892.651517 177.949853 903.344733 175.619348 913.46966 170.530816 C 923.599801 165.682112 932.155416 158.8835 939.188643 150.280962 L 915.993071 132.168708 C 907.244551 142.914061 895.738004 148.143361 881.332662 148.143361 C 868.501846 148.143361 857.756493 143.862947 849.200878 135.307331 C 840.452357 126.751716 836.171943 115.813458 836.171943 102.977428 C 836.171943 90.146612 840.452357 79.401259 849.200878 70.845644 C 857.756493 62.284815 868.501846 57.816709 881.332662 57.816709 C 895.738004 57.816709 907.432242 63.238915 915.993071 73.791362 L 939.188643 55.679108 C 932.343108 47.07657 923.787492 40.465649 913.662566 35.429254 C 903.537639 30.528414 892.651517 28.010217 881.332662 28.010217 C 860.514519 28.010217 842.782863 35.429254 828.184616 50.022287 C 813.591583 64.615321 806.365451 82.346977 806.365451 102.977428 C 806.365451 123.800785 813.591583 141.532441 828.184616 156.130688 C 842.782863 170.723721 860.514519 177.949853 881.332662 177.949853 Z M 1061.271697 175.999945 L 1094.169889 175.999945 L 1035.552714 29.960125 L 1001.465807 29.960125 L 942.853846 175.999945 L 975.798961 175.999945 L 986.304485 147.762764 L 1050.766172 147.762764 Z M 995.808986 122.278396 L 1018.629175 61.0961 L 1041.40244 122.278396 Z M 1151.415871 177.949853 C 1165.252924 177.949853 1176.900239 174.050036 1186.451664 166.255615 C 1196.008302 158.45598 1200.857005 148.143361 1200.857005 135.114426 C 1200.857005 127.888294 1199.527522 121.470279 1197.150093 116.006364 C 1194.631896 110.584158 1191.352504 106.308957 1187.452687 103.170334 C 1183.365177 100.078633 1178.844935 97.132916 1174.189136 94.80241 C 1169.340433 92.471904 1164.444807 90.527209 1159.783795 88.957897 C 1154.935092 87.388586 1150.420062 85.626369 1146.520245 83.916289 C 1142.432736 82.346977 1139.153344 80.209377 1136.822838 77.451351 C 1134.257717 74.933153 1133.115926 71.841453 1133.115926 68.322233 C 1133.115926 63.854126 1134.492332 60.334906 1137.584032 58.009614 C 1140.52975 55.679108 1144.382644 54.490394 1149.085365 54.490394 C 1157.646195 54.490394 1165.821213 58.770808 1173.235037 67.133518 L 1193.297199 48.452976 C 1187.833284 42.222653 1181.415269 37.373949 1173.615634 33.667037 C 1165.821213 29.960125 1157.646195 28.010217 1149.085365 28.010217 C 1136.635146 28.010217 1125.889794 31.717129 1116.953581 39.136166 C 1107.965232 46.503067 1103.497126 57.008591 1103.497126 70.272141 C 1103.497126 79.401259 1105.827632 87.007989 1110.535566 93.045407 C 1115.191364 99.270516 1120.848185 103.738622 1127.459105 106.689554 C 1134.064812 109.588349 1140.910347 112.153469 1147.521268 114.483975 C 1154.126974 116.814481 1159.783795 119.525584 1164.444807 122.658993 C 1169.147528 125.943599 1171.478033 130.031108 1171.478033 134.926734 C 1171.478033 139.582532 1169.528125 143.294658 1166.014118 146.000547 C 1162.494898 148.758573 1157.646195 149.900365 1151.608777 149.900365 C 1144.810165 149.900365 1138.772747 148.143361 1133.684215 144.671064 C 1128.454914 141.151844 1124.555097 136.496046 1121.989976 130.458628 L 1097.272016 145.812856 C 1101.974737 155.369494 1108.966255 163.163915 1118.710585 169.013641 C 1128.454914 175.051059 1139.341036 177.949853 1151.415871 177.949853 Z M 1222.488479 175.999945 L 1252.868474 175.999945 L 1252.868474 29.960125 L 1222.488479 29.960125 Z M 1388.194223 29.960125 L 1388.194223 130.458628 L 1314.603417 29.960125 L 1283.415305 29.960125 L 1283.415305 175.999945 L 1313.7953 175.999945 L 1313.7953 75.120845 L 1387.1932 175.999945 L 1418.381312 175.999945 L 1418.381312 29.960125 Z M 1517.696314 177.949853 C 1538.326765 177.949853 1556.058421 170.723721 1570.651455 156.130688 C 1585.249701 141.532441 1592.663525 123.800785 1592.663525 102.977428 C 1592.663525 82.346977 1585.249701 64.615321 1570.651455 50.022287 C 1556.058421 35.429254 1538.326765 28.010217 1517.696314 28.010217 C 1496.826034 28.010217 1479.141301 35.429254 1464.496131 50.022287 C 1449.903098 64.615321 1442.723889 82.346977 1442.723889 102.977428 C 1442.723889 123.800785 1449.903098 141.532441 1464.496131 156.130688 C 1479.141301 170.723721 1496.826034 177.949853 1517.696314 177.949853 Z M 1517.696314 148.143361 C 1504.813361 148.143361 1494.114931 143.862947 1485.559316 135.114426 C 1476.810795 126.558811 1472.483458 115.813458 1472.483458 102.977428 C 1472.483458 90.334304 1476.810795 79.588951 1485.559316 70.845644 C 1494.114931 62.284815 1504.813361 57.816709 1517.696314 57.816709 C 1530.339438 57.816709 1541.037868 62.284815 1549.781175 70.845644 C 1558.388927 79.588951 1562.857033 90.334304 1562.857033 102.977428 C 1562.857033 115.813458 1558.388927 126.558811 1549.781175 135.114426 C 1541.037868 143.862947 1530.339438 148.143361 1517.696314 148.143361 Z M 1517.696314 148.143361 " stroke="rgb(100%, 8.628845%, 8.628845%)" stroke-width="7.30215" stroke-opacity="1" stroke-miterlimit="4"/></g><g fill="rgb(62.348938%, 24.708557%, 45.098877%)" fill-opacity="1"><g transform="translate(1206.075262, 159.486479)"><g/></g></g><g fill="rgb(62.348938%, 24.708557%, 45.098877%)" fill-opacity="1"><g transform="translate(337.233307, 290.602394)"><g><path d="M 66.671875 -62.734375 L 66.671875 -42.453125 L 88.117188 -42.453125 L 88.117188 -31.660156 C 81.84375 -24.363281 73.527344 -20.863281 63.023438 -20.863281 C 53.394531 -20.863281 45.519531 -24.070312 39.097656 -30.492188 C 32.679688 -36.910156 29.46875 -45.082031 29.46875 -54.710938 C 29.46875 -64.335938 32.679688 -72.363281 39.097656 -78.78125 C 45.519531 -85.199219 53.6875 -88.554688 63.316406 -88.554688 C 74.113281 -88.554688 82.867188 -84.472656 89.285156 -76.59375 L 106.644531 -90.160156 C 101.539062 -96.578125 95.121094 -101.539062 87.535156 -105.332031 C 79.800781 -108.980469 71.777344 -110.878906 63.316406 -110.878906 C 47.707031 -110.878906 34.429688 -105.332031 23.488281 -94.390625 C 12.546875 -83.449219 7.148438 -70.171875 7.148438 -54.710938 C 7.148438 -39.097656 12.546875 -25.824219 23.34375 -14.882812 C 34.136719 -3.9375 47.414062 1.457031 63.023438 1.457031 C 74.84375 1.457031 84.179688 -1.898438 91.035156 -8.609375 L 93.078125 0 L 110.292969 0 L 110.292969 -62.734375 Z M 66.671875 -62.734375 "/></g></g></g><g fill="rgb(62.348938%, 24.708557%, 45.098877%)" fill-opacity="1"><g transform="translate(456.133599, 290.602394)"><g><path d="M 87.679688 0 L 112.335938 0 L 68.421875 -109.417969 L 42.890625 -109.417969 L -1.019531 0 L 23.632812 0 L 31.511719 -21.152344 L 79.800781 -21.152344 Z M 38.660156 -40.265625 L 55.730469 -86.074219 L 72.800781 -40.265625 Z M 38.660156 -40.265625 "/></g></g></g><g fill="rgb(62.348938%, 24.708557%, 45.098877%)" fill-opacity="1"><g transform="translate(567.447624, 290.602394)"><g><path d="M 106.5 -109.417969 L 70.902344 -48.875 L 35.597656 -109.417969 L 11.085938 -109.417969 L 11.085938 0 L 33.847656 0 L 33.847656 -73.382812 L 70.902344 -8.460938 L 108.25 -73.238281 L 108.25 0 L 130.863281 0 L 130.863281 -109.417969 Z M 106.5 -109.417969 "/></g></g></g><g fill="rgb(62.348938%, 24.708557%, 45.098877%)" fill-opacity="1"><g transform="translate(709.398531, 290.602394)"><g><path d="M 79.21875 -89.285156 L 79.21875 -109.417969 L 11.964844 -109.417969 L 11.964844 0 L 79.21875 0 L 79.21875 -20.132812 L 34.722656 -20.132812 L 34.722656 -44.644531 L 73.089844 -44.644531 L 73.089844 -64.777344 L 34.722656 -64.777344 L 34.722656 -89.285156 Z M 79.21875 -89.285156 "/></g></g></g><g fill="rgb(62.348938%, 24.708557%, 45.098877%)" fill-opacity="1"><g transform="translate(795.1818, 290.602394)"><g><path d="M 43.914062 1.457031 C 54.269531 1.457031 63.023438 -1.457031 70.171875 -7.292969 C 77.320312 -13.128906 80.96875 -20.863281 80.96875 -30.636719 C 80.96875 -36.035156 79.949219 -40.847656 78.199219 -44.933594 C 76.300781 -49.019531 73.820312 -52.230469 70.902344 -54.5625 C 67.839844 -56.898438 64.484375 -59.085938 60.980469 -60.835938 C 57.335938 -62.585938 53.6875 -64.046875 50.1875 -65.214844 C 46.539062 -66.378906 43.183594 -67.691406 40.265625 -69.007812 C 37.203125 -70.171875 34.722656 -71.777344 32.972656 -73.820312 C 31.074219 -75.71875 30.199219 -78.050781 30.199219 -80.675781 C 30.199219 -84.03125 31.21875 -86.660156 33.554688 -88.410156 C 35.742188 -90.160156 38.660156 -91.035156 42.164062 -91.035156 C 48.582031 -91.035156 54.710938 -87.828125 60.253906 -81.554688 L 75.28125 -95.558594 C 71.195312 -100.226562 66.378906 -103.875 60.542969 -106.644531 C 54.710938 -109.417969 48.582031 -110.878906 42.164062 -110.878906 C 32.824219 -110.878906 24.800781 -108.105469 18.089844 -102.5625 C 11.378906 -97.015625 8.023438 -89.140625 8.023438 -79.21875 C 8.023438 -72.363281 9.773438 -66.671875 13.277344 -62.148438 C 16.777344 -57.480469 21.007812 -54.125 25.96875 -51.9375 C 30.929688 -49.75 36.035156 -47.851562 40.996094 -46.101562 C 45.957031 -44.351562 50.1875 -42.308594 53.6875 -39.972656 C 57.1875 -37.492188 58.941406 -34.429688 58.941406 -30.78125 C 58.941406 -27.28125 57.480469 -24.507812 54.855469 -22.46875 C 52.230469 -20.425781 48.582031 -19.550781 44.058594 -19.550781 C 38.953125 -19.550781 34.429688 -20.863281 30.636719 -23.488281 C 26.699219 -26.113281 23.78125 -29.617188 21.882812 -34.136719 L 3.355469 -22.613281 C 6.855469 -15.464844 12.109375 -9.628906 19.402344 -5.253906 C 26.699219 -0.730469 34.867188 1.457031 43.914062 1.457031 Z M 43.914062 1.457031 "/></g></g></g><g clip-path="url(#id2)"><path stroke-linecap="butt" transform="matrix(0.749234, 0, 0, 0.749234, 0.000000000000085265, 21.947393)" fill="none" stroke-linejoin="miter" d="M 531.52217 267.285911 L 531.52217 294.334377 L 560.145162 294.334377 L 560.145162 308.739719 C 551.777238 318.484048 540.651288 323.139846 526.626544 323.139846 C 513.790514 323.139846 503.28499 318.864646 494.729375 310.30903 C 486.173759 301.748201 481.846422 290.815157 481.846422 277.979127 C 481.846422 265.143097 486.173759 254.402958 494.729375 245.842129 C 503.28499 237.286514 514.171111 232.818407 527.054064 232.818407 C 541.459406 232.818407 553.153644 238.2354 561.70926 248.79306 L 584.863122 230.680807 C 578.06451 222.073055 569.508894 215.467348 559.383967 210.425739 C 549.066135 205.530113 538.320783 203.011915 527.054064 203.011915 C 506.183785 203.011915 488.499051 210.425739 473.859095 225.023986 C 459.266062 239.617019 452.086853 257.348676 452.086853 277.979127 C 452.086853 298.802483 459.266062 316.53414 473.671403 331.127173 C 488.071531 345.72542 505.803188 352.951552 526.626544 352.951552 C 542.408292 352.951552 554.863724 348.478232 564.039765 339.495097 L 566.750868 351.001643 L 589.758748 351.001643 L 589.758748 267.285911 Z M 718.270244 351.001643 L 751.163223 351.001643 L 692.551261 204.961824 L 658.464355 204.961824 L 599.84718 351.001643 L 632.792295 351.001643 L 643.297819 322.759249 L 707.76472 322.759249 Z M 652.807534 297.280095 L 675.627722 236.097799 L 698.395774 297.280095 Z M 891.937246 204.961824 L 844.44602 285.778762 L 797.288469 204.961824 L 764.583183 204.961824 L 764.583183 351.001643 L 794.957963 351.001643 L 794.957963 253.068261 L 844.44602 339.688002 L 894.267752 253.261167 L 894.267752 351.001643 L 924.454841 351.001643 L 924.454841 204.961824 Z M 1044.984224 231.817385 L 1044.984224 204.961824 L 955.231074 204.961824 L 955.231074 351.001643 L 1044.984224 351.001643 L 1044.984224 324.140869 L 985.611068 324.140869 L 985.611068 291.435582 L 1036.809206 291.435582 L 1036.809206 264.527885 L 985.611068 264.527885 L 985.611068 231.817385 Z M 1112.370774 352.951552 C 1126.202613 352.951552 1137.849929 349.051735 1147.406567 341.2521 C 1156.963205 333.457679 1161.811909 323.139846 1161.811909 310.116125 C 1161.811909 302.889992 1160.477212 296.471977 1158.099783 291.008062 C 1155.581585 285.585856 1152.302193 281.305442 1148.402376 278.172032 C 1144.314867 275.080332 1139.799838 272.134614 1135.138826 269.804109 C 1130.290123 267.473603 1125.394496 265.523694 1120.738698 263.954382 C 1115.884781 262.385071 1111.369752 260.628068 1107.475148 258.917987 C 1103.382425 257.348676 1100.103033 255.211075 1097.772528 252.453049 C 1095.207407 249.929638 1094.065616 246.843152 1094.065616 243.323931 C 1094.065616 238.855825 1095.447235 235.336605 1098.533722 233.006099 C 1101.484653 230.680807 1105.332334 229.492092 1110.040269 229.492092 C 1118.595884 229.492092 1126.776116 233.767293 1134.18994 242.135217 L 1154.252102 223.454675 C 1148.782973 217.224351 1142.364958 212.375648 1134.570537 208.668736 C 1126.776116 204.961824 1118.595884 203.011915 1110.040269 203.011915 C 1097.584836 203.011915 1086.839483 206.718827 1077.903271 214.132651 C 1068.920135 221.504766 1064.452029 232.01029 1064.452029 245.27384 C 1064.452029 254.402958 1066.777321 262.004474 1071.485256 268.041892 C 1076.146267 274.272215 1081.803088 278.740321 1088.408795 281.686039 C 1095.019715 284.590047 1101.86525 287.155168 1108.470957 289.485674 C 1115.076664 291.816179 1120.738698 294.522069 1125.394496 297.660692 C 1130.102431 300.940084 1132.432937 305.027593 1132.432937 309.928433 C 1132.432937 314.584231 1130.483028 318.291143 1126.963808 321.002246 C 1123.444587 323.760272 1118.595884 324.902063 1112.558466 324.902063 C 1105.759854 324.902063 1099.722436 323.139846 1094.639118 319.672763 C 1089.409817 316.153543 1085.51 311.492531 1082.94488 305.455113 L 1058.221706 320.814554 C 1062.92964 330.365979 1069.915944 338.165613 1079.660274 344.010126 C 1089.409817 350.047544 1100.295939 352.951552 1112.370774 352.951552 Z M 1112.370774 352.951552 " stroke="rgb(100%, 8.628845%, 8.628845%)" stroke-width="7.30215" stroke-opacity="1" stroke-miterlimit="4"/></g></svg>