<svg xmlns="http://www.w3.org/2000/svg" xmlns:xlink="http://www.w3.org/1999/xlink" width="500" zoomAndPan="magnify" viewBox="0 0 375 374.999991" height="500" preserveAspectRatio="xMidYMid meet" version="1.0"><defs><clipPath id="id1"><path d="M 104.6875 37.5 L 270.4375 37.5 L 270.4375 337.5 L 104.6875 337.5 Z M 104.6875 37.5 " clip-rule="nonzero"/></clipPath></defs><g clip-path="url(#id1)"><path fill="rgb(98.81897%, 81.959534%, 22.349548%)" d="M 126.847656 37.550781 C 115.472656 37.550781 106.3125 48.566406 106.3125 62.246094 L 106.3125 90.949219 C 105.386719 91.136719 104.691406 91.953125 104.691406 92.933594 L 104.691406 102.199219 C 104.691406 103.179688 105.386719 103.996094 106.3125 104.183594 L 106.3125 114.171875 C 105.386719 114.359375 104.691406 115.175781 104.691406 116.160156 L 104.691406 131.679688 C 104.691406 132.664062 105.386719 133.476562 106.3125 133.664062 L 106.3125 140.378906 C 105.386719 140.566406 104.691406 141.382812 104.691406 142.367188 L 104.691406 157.886719 C 104.691406 158.871094 105.386719 159.683594 106.3125 159.871094 L 106.3125 312.769531 C 106.3125 326.453125 115.472656 337.464844 126.847656 337.464844 L 247.492188 337.464844 C 258.867188 337.464844 268.027344 326.453125 268.027344 312.769531 L 268.027344 133.664062 C 268.152344 133.691406 268.28125 133.703125 268.414062 133.703125 C 269.539062 133.703125 270.441406 132.800781 270.441406 131.675781 L 270.441406 116.15625 C 270.441406 115.03125 269.539062 114.128906 268.414062 114.128906 C 268.28125 114.128906 268.152344 114.144531 268.027344 114.167969 L 268.027344 62.246094 C 268.027344 48.5625 258.867188 37.546875 247.492188 37.546875 L 126.847656 37.546875 Z M 187.171875 43.757812 C 187.484375 43.757812 187.789062 43.816406 188.082031 43.9375 C 188.371094 44.058594 188.628906 44.230469 188.851562 44.453125 C 189.074219 44.675781 189.246094 44.933594 189.367188 45.222656 C 189.488281 45.515625 189.546875 45.816406 189.546875 46.132812 C 189.546875 46.449219 189.488281 46.75 189.367188 47.042969 C 189.246094 47.332031 189.074219 47.589844 188.851562 47.8125 C 188.628906 48.035156 188.371094 48.207031 188.082031 48.328125 C 187.789062 48.449219 187.484375 48.507812 187.171875 48.507812 C 186.855469 48.507812 186.550781 48.449219 186.261719 48.328125 C 185.96875 48.207031 185.710938 48.035156 185.488281 47.8125 C 185.265625 47.589844 185.09375 47.332031 184.972656 47.042969 C 184.851562 46.75 184.792969 46.449219 184.792969 46.132812 C 184.792969 45.816406 184.851562 45.515625 184.972656 45.222656 C 185.09375 44.933594 185.265625 44.675781 185.488281 44.453125 C 185.710938 44.230469 185.96875 44.058594 186.261719 43.9375 C 186.550781 43.816406 186.855469 43.757812 187.171875 43.757812 Z M 155.261719 53.285156 C 155.617188 53.285156 155.957031 53.351562 156.285156 53.488281 C 156.613281 53.621094 156.902344 53.816406 157.152344 54.066406 C 157.40625 54.316406 157.597656 54.605469 157.734375 54.933594 C 157.871094 55.261719 157.9375 55.601562 157.9375 55.957031 C 157.9375 56.3125 157.871094 56.652344 157.734375 56.980469 C 157.597656 57.308594 157.40625 57.597656 157.152344 57.847656 C 156.902344 58.097656 156.613281 58.289062 156.285156 58.425781 C 155.957031 58.5625 155.617188 58.628906 155.261719 58.628906 C 154.90625 58.628906 154.566406 58.5625 154.238281 58.425781 C 153.910156 58.289062 153.621094 58.097656 153.371094 57.847656 C 153.121094 57.597656 152.925781 57.308594 152.789062 56.980469 C 152.65625 56.652344 152.585938 56.3125 152.585938 55.957031 C 152.585938 55.601562 152.65625 55.261719 152.789062 54.933594 C 152.925781 54.605469 153.121094 54.316406 153.371094 54.066406 C 153.621094 53.816406 153.910156 53.621094 154.238281 53.488281 C 154.566406 53.351562 154.90625 53.285156 155.261719 53.285156 Z M 171.582031 54.785156 L 203.558594 54.785156 C 204.199219 54.785156 204.71875 55.445312 204.71875 56.269531 C 204.71875 57.09375 204.199219 57.753906 203.558594 57.753906 L 171.582031 57.753906 C 170.9375 57.753906 170.417969 57.09375 170.417969 56.269531 C 170.417969 55.445312 170.9375 54.785156 171.582031 54.785156 Z M 110.132812 71.203125 L 264.210938 71.203125 L 264.210938 303.816406 L 110.132812 303.816406 Z M 187.171875 309.210938 C 187.941406 309.210938 188.703125 309.285156 189.460938 309.4375 C 190.214844 309.585938 190.949219 309.808594 191.664062 310.101562 C 192.375 310.398438 193.050781 310.757812 193.691406 311.1875 C 194.332031 311.613281 194.925781 312.101562 195.46875 312.644531 C 196.015625 313.191406 196.5 313.78125 196.929688 314.421875 C 197.359375 315.0625 197.71875 315.738281 198.015625 316.449219 C 198.308594 317.160156 198.53125 317.894531 198.683594 318.652344 C 198.832031 319.40625 198.90625 320.167969 198.90625 320.9375 C 198.90625 321.707031 198.832031 322.472656 198.683594 323.226562 C 198.53125 323.980469 198.308594 324.714844 198.015625 325.425781 C 197.71875 326.136719 197.359375 326.8125 196.929688 327.453125 C 196.5 328.09375 196.015625 328.6875 195.46875 329.230469 C 194.925781 329.777344 194.332031 330.261719 193.691406 330.691406 C 193.050781 331.117188 192.375 331.480469 191.664062 331.773438 C 190.949219 332.070312 190.214844 332.292969 189.460938 332.441406 C 188.703125 332.59375 187.941406 332.667969 187.171875 332.667969 C 186.398438 332.667969 185.636719 332.59375 184.882812 332.441406 C 184.125 332.292969 183.390625 332.070312 182.679688 331.773438 C 181.96875 331.480469 181.289062 331.117188 180.648438 330.691406 C 180.007812 330.261719 179.417969 329.777344 178.871094 329.230469 C 178.328125 328.6875 177.839844 328.09375 177.410156 327.453125 C 176.984375 326.8125 176.621094 326.136719 176.328125 325.425781 C 176.03125 324.714844 175.808594 323.980469 175.660156 323.226562 C 175.507812 322.472656 175.433594 321.707031 175.433594 320.9375 C 175.433594 320.167969 175.507812 319.40625 175.660156 318.652344 C 175.808594 317.894531 176.03125 317.160156 176.328125 316.449219 C 176.621094 315.738281 176.984375 315.0625 177.410156 314.421875 C 177.839844 313.78125 178.324219 313.191406 178.871094 312.644531 C 179.417969 312.101562 180.007812 311.613281 180.648438 311.1875 C 181.289062 310.757812 181.96875 310.398438 182.679688 310.101562 C 183.390625 309.808594 184.125 309.585938 184.882812 309.4375 C 185.636719 309.285156 186.398438 309.210938 187.171875 309.210938 Z M 187.171875 309.210938 " fill-opacity="1" fill-rule="nonzero"/></g></svg>