<svg xmlns="http://www.w3.org/2000/svg" xmlns:xlink="http://www.w3.org/1999/xlink" width="500" zoomAndPan="magnify" viewBox="0 0 375 374.999991" height="500" preserveAspectRatio="xMidYMid meet" version="1.0"><defs><clipPath id="id1"><path d="M 193 37.5 L 200 37.5 L 200 41 L 193 41 Z M 193 37.5 " clip-rule="nonzero"/></clipPath><clipPath id="id2"><path d="M 179 37.5 L 187 37.5 L 187 41 L 179 41 Z M 179 37.5 " clip-rule="nonzero"/></clipPath><clipPath id="id3"><path d="M 183 37.5 L 191 37.5 L 191 41 L 183 41 Z M 183 37.5 " clip-rule="nonzero"/></clipPath><clipPath id="id4"><path d="M 189 37.5 L 196 37.5 L 196 41 L 189 41 Z M 189 37.5 " clip-rule="nonzero"/></clipPath><clipPath id="id5"><path d="M 179 330 L 187 330 L 187 333 L 179 333 Z M 179 330 " clip-rule="nonzero"/></clipPath><clipPath id="id6"><path d="M 183 330 L 191 330 L 191 333 L 183 333 Z M 183 330 " clip-rule="nonzero"/></clipPath><clipPath id="id7"><path d="M 37.5 186 L 41 186 L 41 193 L 37.5 193 Z M 37.5 186 " clip-rule="nonzero"/></clipPath><clipPath id="id8"><path d="M 37.5 96 L 118 96 L 118 181 L 37.5 181 Z M 37.5 96 " clip-rule="nonzero"/></clipPath><clipPath id="id9"><path d="M 37.5 178 L 41 178 L 41 184 L 37.5 184 Z M 37.5 178 " clip-rule="nonzero"/></clipPath><clipPath id="id10"><path d="M 170 37.5 L 177 37.5 L 177 41 L 170 41 Z M 170 37.5 " clip-rule="nonzero"/></clipPath><clipPath id="id11"><path d="M 175 37.5 L 181 37.5 L 181 41 L 175 41 Z M 175 37.5 " clip-rule="nonzero"/></clipPath><clipPath id="id12"><path d="M 37.5 189 L 118 189 L 118 275 L 37.5 275 Z M 37.5 189 " clip-rule="nonzero"/></clipPath></defs><path fill="rgb(98.81897%, 81.959534%, 22.349548%)" d="M 203.601562 39.992188 C 202.21875 39.820312 200.832031 39.671875 199.441406 39.539062 C 200.832031 39.671875 202.21875 39.820312 203.601562 39.992188 " fill-opacity="1" fill-rule="nonzero"/><path fill="rgb(98.81897%, 81.959534%, 22.349548%)" d="M 203.601562 39.992188 L 203.765625 38.695312 C 202.367188 38.519531 200.964844 38.367188 199.5625 38.234375 C 198.84375 38.167969 198.203125 38.695312 198.132812 39.414062 C 198.066406 40.132812 198.59375 40.769531 199.3125 40.839844 C 200.695312 40.972656 202.070312 41.117188 203.4375 41.292969 C 203.777344 41.332031 204.128906 41.238281 204.402344 41.027344 C 204.675781 40.816406 204.855469 40.5 204.898438 40.15625 C 204.941406 39.8125 204.84375 39.460938 204.632812 39.191406 C 204.421875 38.917969 204.105469 38.738281 203.765625 38.695312 L 203.601562 39.992188 L 203.765625 38.695312 C 202.367188 38.519531 200.964844 38.367188 199.5625 38.234375 C 198.84375 38.167969 198.203125 38.695312 198.132812 39.414062 C 198.066406 40.132812 198.59375 40.769531 199.3125 40.839844 C 200.695312 40.972656 202.070312 41.117188 203.4375 41.292969 C 203.777344 41.332031 204.128906 41.238281 204.402344 41.027344 C 204.675781 40.816406 204.855469 40.5 204.898438 40.15625 C 204.941406 39.8125 204.84375 39.460938 204.632812 39.191406 C 204.421875 38.917969 204.105469 38.738281 203.765625 38.695312 L 203.601562 39.992188 " fill-opacity="1" fill-rule="nonzero"/><path fill="rgb(98.81897%, 81.959534%, 22.349548%)" d="M 240.566406 255.96875 C 225.011719 251.917969 208.210938 249.59375 190.863281 249.175781 L 190.863281 325.875 C 206.183594 315.628906 227.957031 294.964844 240.566406 255.96875 " fill-opacity="1" fill-rule="nonzero"/><path fill="rgb(98.81897%, 81.959534%, 22.349548%)" d="M 240.566406 255.96875 L 240.898438 254.699219 C 225.234375 250.625 208.339844 248.289062 190.894531 247.871094 C 190.542969 247.859375 190.203125 247.992188 189.949219 248.242188 C 189.695312 248.488281 189.554688 248.820312 189.554688 249.175781 L 189.554688 325.875 C 189.554688 326.359375 189.820312 326.800781 190.25 327.027344 C 190.675781 327.257812 191.1875 327.230469 191.589844 326.964844 C 207.109375 316.59375 229.109375 295.667969 241.8125 256.371094 C 241.925781 256.023438 241.886719 255.648438 241.714844 255.335938 C 241.542969 255.019531 241.246094 254.789062 240.898438 254.699219 L 240.566406 255.96875 L 239.324219 255.5625 C 226.800781 294.265625 205.257812 314.667969 190.136719 324.785156 L 190.863281 325.875 L 192.171875 325.875 L 192.171875 249.175781 L 190.863281 249.175781 L 190.832031 250.484375 C 208.082031 250.898438 224.785156 253.210938 240.238281 257.230469 L 240.566406 255.96875 L 239.324219 255.5625 L 240.566406 255.96875 " fill-opacity="1" fill-rule="nonzero"/><path fill="rgb(98.81897%, 81.959534%, 22.349548%)" d="M 250.585938 190.945312 L 190.863281 190.945312 L 190.863281 237.847656 C 209.265625 238.269531 227.121094 240.765625 243.699219 245.105469 C 247.644531 229.703125 250.1875 211.773438 250.585938 190.945312 " fill-opacity="1" fill-rule="nonzero"/><path fill="rgb(98.81897%, 81.959534%, 22.349548%)" d="M 250.585938 190.945312 L 250.585938 189.636719 L 190.863281 189.636719 C 190.515625 189.636719 190.183594 189.777344 189.9375 190.023438 C 189.691406 190.265625 189.554688 190.601562 189.554688 190.945312 L 189.554688 237.847656 C 189.554688 238.558594 190.121094 239.136719 190.835938 239.15625 C 209.136719 239.574219 226.890625 242.054688 243.367188 246.371094 C 243.703125 246.457031 244.0625 246.410156 244.359375 246.234375 C 244.664062 246.054688 244.878906 245.765625 244.96875 245.429688 C 248.941406 229.921875 251.492188 211.894531 251.894531 190.972656 C 251.902344 190.621094 251.765625 190.28125 251.519531 190.027344 C 251.277344 189.78125 250.933594 189.636719 250.585938 189.636719 L 250.585938 190.945312 L 249.277344 190.921875 C 248.882812 211.660156 246.351562 229.488281 242.433594 244.777344 L 243.699219 245.105469 L 244.03125 243.839844 C 227.34375 239.472656 209.390625 236.964844 190.890625 236.539062 L 190.863281 237.847656 L 192.171875 237.847656 L 192.171875 192.253906 L 250.585938 192.253906 L 250.585938 190.945312 L 249.277344 190.921875 L 250.585938 190.945312 " fill-opacity="1" fill-rule="nonzero"/><path fill="rgb(98.81897%, 81.959534%, 22.349548%)" d="M 243.699219 125.472656 C 227.121094 129.824219 209.265625 132.308594 190.863281 132.738281 L 190.863281 179.636719 L 250.585938 179.636719 C 250.1875 158.808594 247.644531 140.878906 243.699219 125.472656 " fill-opacity="1" fill-rule="nonzero"/><path fill="rgb(98.81897%, 81.959534%, 22.349548%)" d="M 243.699219 125.472656 L 243.367188 124.210938 C 226.890625 128.527344 209.136719 131.003906 190.835938 131.429688 C 190.121094 131.445312 189.554688 132.027344 189.554688 132.738281 L 189.554688 179.636719 C 189.554688 179.984375 189.691406 180.320312 189.9375 180.566406 C 190.183594 180.808594 190.515625 180.945312 190.863281 180.945312 L 250.585938 180.945312 C 250.933594 180.945312 251.277344 180.804688 251.519531 180.554688 C 251.765625 180.304688 251.902344 179.964844 251.894531 179.613281 C 251.492188 158.691406 248.941406 140.660156 244.96875 125.148438 C 244.878906 124.808594 244.664062 124.523438 244.359375 124.347656 C 244.0625 124.167969 243.703125 124.117188 243.367188 124.210938 L 243.699219 125.472656 L 242.433594 125.796875 C 246.351562 141.101562 248.882812 158.925781 249.277344 179.664062 L 250.585938 179.636719 L 250.585938 178.328125 L 192.171875 178.328125 L 192.171875 132.738281 L 190.863281 132.738281 L 190.890625 134.046875 C 209.390625 133.617188 227.34375 131.113281 244.03125 126.738281 L 243.699219 125.472656 L 242.433594 125.796875 L 243.699219 125.472656 " fill-opacity="1" fill-rule="nonzero"/><path fill="rgb(98.81897%, 81.959534%, 22.349548%)" d="M 198.34375 39.441406 C 197.292969 39.34375 196.238281 39.265625 195.1875 39.191406 C 196.238281 39.265625 197.292969 39.34375 198.34375 39.441406 " fill-opacity="1" fill-rule="nonzero"/><g clip-path="url(#id1)"><path fill="rgb(98.81897%, 81.959534%, 22.349548%)" d="M 198.34375 39.441406 L 198.464844 38.136719 C 197.398438 38.042969 196.339844 37.960938 195.273438 37.882812 C 194.550781 37.835938 193.929688 38.382812 193.878906 39.101562 C 193.828125 39.824219 194.375 40.445312 195.097656 40.5 C 196.144531 40.566406 197.183594 40.648438 198.226562 40.742188 C 198.570312 40.773438 198.917969 40.664062 199.183594 40.445312 C 199.449219 40.226562 199.617188 39.902344 199.652344 39.5625 C 199.679688 39.21875 199.574219 38.871094 199.351562 38.605469 C 199.132812 38.335938 198.808594 38.167969 198.464844 38.136719 L 198.34375 39.441406 L 198.464844 38.136719 C 197.398438 38.042969 196.339844 37.960938 195.273438 37.882812 C 194.550781 37.835938 193.929688 38.382812 193.878906 39.101562 C 193.828125 39.824219 194.375 40.445312 195.097656 40.5 C 196.144531 40.566406 197.183594 40.648438 198.226562 40.742188 C 198.570312 40.773438 198.917969 40.664062 199.183594 40.445312 C 199.449219 40.226562 199.617188 39.902344 199.652344 39.5625 C 199.679688 39.21875 199.574219 38.871094 199.351562 38.605469 C 199.132812 38.335938 198.808594 38.167969 198.464844 38.136719 L 198.34375 39.441406 " fill-opacity="1" fill-rule="nonzero"/></g><path fill="rgb(98.81897%, 81.959534%, 22.349548%)" d="M 126.710938 245.105469 C 143.292969 240.761719 161.148438 238.269531 179.554688 237.847656 L 179.554688 190.945312 L 119.828125 190.945312 C 120.21875 211.773438 122.765625 229.703125 126.710938 245.105469 " fill-opacity="1" fill-rule="nonzero"/><path fill="rgb(98.81897%, 81.959534%, 22.349548%)" d="M 126.710938 245.105469 L 127.042969 246.371094 C 143.515625 242.054688 161.273438 239.574219 179.585938 239.15625 C 180.292969 239.136719 180.863281 238.558594 180.863281 237.847656 L 180.863281 190.945312 C 180.863281 190.601562 180.722656 190.265625 180.480469 190.023438 C 180.234375 189.777344 179.898438 189.636719 179.554688 189.636719 L 119.828125 189.636719 C 119.480469 189.636719 119.140625 189.78125 118.894531 190.027344 C 118.648438 190.277344 118.511719 190.621094 118.519531 190.96875 C 118.914062 211.894531 121.472656 229.921875 125.445312 245.429688 C 125.53125 245.765625 125.746094 246.054688 126.046875 246.234375 C 126.347656 246.410156 126.707031 246.457031 127.042969 246.371094 L 126.710938 245.105469 L 127.980469 244.777344 C 124.0625 229.488281 121.527344 211.660156 121.136719 190.921875 L 119.828125 190.945312 L 119.828125 192.253906 L 178.246094 192.253906 L 178.246094 237.847656 L 179.554688 237.847656 L 179.523438 236.539062 C 161.019531 236.964844 143.0625 239.46875 126.378906 243.839844 L 126.710938 245.105469 L 127.980469 244.777344 L 126.710938 245.105469 " fill-opacity="1" fill-rule="nonzero"/><path fill="rgb(98.81897%, 81.959534%, 22.349548%)" d="M 179.554688 132.738281 C 161.148438 132.308594 143.292969 129.824219 126.710938 125.472656 C 122.765625 140.878906 120.21875 158.808594 119.828125 179.636719 L 179.554688 179.636719 L 179.554688 132.738281 " fill-opacity="1" fill-rule="nonzero"/><path fill="rgb(98.81897%, 81.959534%, 22.349548%)" d="M 179.554688 132.738281 L 179.585938 131.429688 C 161.273438 131.003906 143.515625 128.527344 127.042969 124.210938 C 126.707031 124.117188 126.347656 124.167969 126.046875 124.347656 C 125.746094 124.523438 125.53125 124.808594 125.445312 125.148438 C 121.472656 140.660156 118.914062 158.691406 118.519531 179.613281 C 118.511719 179.964844 118.648438 180.304688 118.894531 180.558594 C 119.140625 180.804688 119.480469 180.945312 119.828125 180.945312 L 179.554688 180.945312 C 179.898438 180.945312 180.234375 180.808594 180.480469 180.566406 C 180.722656 180.320312 180.863281 179.984375 180.863281 179.636719 L 180.863281 132.738281 C 180.863281 132.027344 180.296875 131.445312 179.585938 131.429688 L 179.554688 132.738281 L 178.246094 132.738281 L 178.246094 178.328125 L 119.828125 178.328125 L 119.828125 179.636719 L 121.136719 179.664062 C 121.527344 158.925781 124.0625 141.101562 127.980469 125.796875 L 126.710938 125.472656 L 126.378906 126.738281 C 143.0625 131.113281 161.019531 133.617188 179.523438 134.046875 L 179.554688 132.738281 L 178.246094 132.738281 L 179.554688 132.738281 " fill-opacity="1" fill-rule="nonzero"/><path fill="rgb(98.81897%, 81.959534%, 22.349548%)" d="M 185.207031 38.84375 C 183.769531 38.84375 182.339844 38.871094 180.910156 38.914062 C 182.339844 38.871094 183.769531 38.84375 185.207031 38.84375 " fill-opacity="1" fill-rule="nonzero"/><g clip-path="url(#id2)"><path fill="rgb(98.81897%, 81.959534%, 22.349548%)" d="M 185.207031 38.84375 L 185.207031 37.535156 C 183.757812 37.535156 182.3125 37.5625 180.871094 37.605469 C 180.148438 37.625 179.582031 38.226562 179.601562 38.949219 C 179.621094 39.671875 180.226562 40.238281 180.949219 40.222656 C 182.367188 40.179688 183.785156 40.152344 185.207031 40.152344 C 185.550781 40.152344 185.890625 40.019531 186.132812 39.773438 C 186.375 39.527344 186.515625 39.191406 186.515625 38.84375 C 186.515625 38.5 186.375 38.164062 186.132812 37.921875 C 185.890625 37.675781 185.550781 37.535156 185.207031 37.535156 L 185.207031 38.84375 L 185.207031 37.535156 C 183.757812 37.535156 182.3125 37.5625 180.871094 37.605469 C 180.148438 37.625 179.582031 38.226562 179.601562 38.949219 C 179.621094 39.671875 180.226562 40.238281 180.949219 40.222656 C 182.367188 40.179688 183.785156 40.152344 185.207031 40.152344 C 185.550781 40.152344 185.890625 40.019531 186.132812 39.773438 C 186.375 39.527344 186.515625 39.191406 186.515625 38.84375 C 186.515625 38.5 186.375 38.164062 186.132812 37.921875 C 185.890625 37.675781 185.550781 37.535156 185.207031 37.535156 L 185.207031 38.84375 " fill-opacity="1" fill-rule="nonzero"/></g><path fill="rgb(98.81897%, 81.959534%, 22.349548%)" d="M 185.207031 38.84375 C 186.644531 38.84375 188.074219 38.871094 189.503906 38.914062 C 188.074219 38.871094 186.644531 38.84375 185.207031 38.84375 " fill-opacity="1" fill-rule="nonzero"/><g clip-path="url(#id3)"><path fill="rgb(98.81897%, 81.959534%, 22.349548%)" d="M 185.207031 38.84375 L 185.207031 40.152344 C 186.628906 40.152344 188.046875 40.179688 189.46875 40.222656 C 189.8125 40.230469 190.152344 40.101562 190.40625 39.863281 C 190.652344 39.625 190.804688 39.296875 190.8125 38.949219 C 190.820312 38.605469 190.691406 38.261719 190.457031 38.015625 C 190.21875 37.765625 189.886719 37.613281 189.539062 37.605469 C 188.101562 37.5625 186.660156 37.535156 185.207031 37.535156 C 184.859375 37.535156 184.527344 37.675781 184.28125 37.921875 C 184.039062 38.164062 183.898438 38.5 183.898438 38.84375 C 183.898438 39.191406 184.039062 39.527344 184.28125 39.773438 C 184.527344 40.019531 184.859375 40.152344 185.207031 40.152344 L 185.207031 38.84375 L 185.207031 40.152344 C 186.628906 40.152344 188.046875 40.179688 189.46875 40.222656 C 189.8125 40.230469 190.152344 40.101562 190.40625 39.863281 C 190.652344 39.625 190.804688 39.296875 190.8125 38.949219 C 190.820312 38.605469 190.691406 38.261719 190.457031 38.015625 C 190.21875 37.765625 189.886719 37.613281 189.539062 37.605469 C 188.101562 37.5625 186.660156 37.535156 185.207031 37.535156 C 184.859375 37.535156 184.527344 37.675781 184.28125 37.921875 C 184.039062 38.164062 183.898438 38.5 183.898438 38.84375 C 183.898438 39.191406 184.039062 39.527344 184.28125 39.773438 C 184.527344 40.019531 184.859375 40.152344 185.207031 40.152344 L 185.207031 38.84375 " fill-opacity="1" fill-rule="nonzero"/></g><path fill="rgb(98.81897%, 81.959534%, 22.349548%)" d="M 302.675781 97.835938 C 301.628906 96.421875 300.542969 95.035156 299.4375 93.660156 C 300.542969 95.035156 301.628906 96.421875 302.675781 97.835938 " fill-opacity="1" fill-rule="nonzero"/><path fill="rgb(98.81897%, 81.959534%, 22.349548%)" d="M 302.675781 97.835938 L 303.726562 97.054688 C 302.664062 95.625 301.566406 94.222656 300.457031 92.84375 C 300.007812 92.277344 299.183594 92.1875 298.621094 92.640625 C 298.054688 93.09375 297.964844 93.914062 298.417969 94.480469 C 299.511719 95.84375 300.589844 97.21875 301.625 98.617188 C 301.832031 98.890625 302.144531 99.078125 302.484375 99.128906 C 302.824219 99.179688 303.179688 99.09375 303.457031 98.882812 C 303.730469 98.679688 303.917969 98.367188 303.96875 98.027344 C 304.023438 97.683594 303.933594 97.332031 303.726562 97.054688 L 302.675781 97.835938 L 303.726562 97.054688 C 302.664062 95.625 301.566406 94.222656 300.457031 92.84375 C 300.007812 92.277344 299.183594 92.1875 298.621094 92.640625 C 298.054688 93.09375 297.964844 93.914062 298.417969 94.480469 C 299.511719 95.84375 300.589844 97.21875 301.625 98.617188 C 301.832031 98.890625 302.144531 99.078125 302.484375 99.128906 C 302.824219 99.179688 303.179688 99.09375 303.457031 98.882812 C 303.730469 98.679688 303.917969 98.367188 303.96875 98.027344 C 304.023438 97.683594 303.933594 97.332031 303.726562 97.054688 L 302.675781 97.835938 " fill-opacity="1" fill-rule="nonzero"/><path fill="rgb(98.81897%, 81.959534%, 22.349548%)" d="M 179.554688 325.878906 L 179.554688 249.175781 C 162.199219 249.59375 145.410156 251.917969 129.847656 255.96875 C 142.453125 294.964844 164.222656 315.628906 179.554688 325.878906 " fill-opacity="1" fill-rule="nonzero"/><path fill="rgb(98.81897%, 81.959534%, 22.349548%)" d="M 179.554688 325.878906 L 180.863281 325.878906 L 180.863281 249.175781 C 180.863281 248.820312 180.722656 248.488281 180.46875 248.242188 C 180.214844 247.992188 179.878906 247.859375 179.523438 247.871094 C 162.074219 248.289062 145.183594 250.625 129.515625 254.699219 C 129.167969 254.789062 128.875 255.019531 128.699219 255.335938 C 128.527344 255.648438 128.492188 256.023438 128.601562 256.371094 C 141.300781 295.667969 163.296875 316.59375 178.828125 326.96875 C 179.230469 327.238281 179.746094 327.261719 180.171875 327.035156 C 180.597656 326.804688 180.863281 326.363281 180.863281 325.878906 L 179.554688 325.878906 L 180.28125 324.792969 C 165.152344 314.667969 143.609375 294.265625 131.089844 255.5625 L 129.847656 255.96875 L 130.175781 257.230469 C 145.632812 253.210938 162.328125 250.898438 179.585938 250.484375 L 179.554688 249.175781 L 178.246094 249.175781 L 178.246094 325.878906 L 179.554688 325.878906 L 180.28125 324.792969 L 179.554688 325.878906 " fill-opacity="1" fill-rule="nonzero"/><path fill="rgb(98.81897%, 81.959534%, 22.349548%)" d="M 190.863281 44.703125 L 190.863281 121.410156 C 208.210938 120.988281 225.011719 118.671875 240.566406 114.617188 C 227.957031 75.625 206.183594 54.957031 190.863281 44.703125 " fill-opacity="1" fill-rule="nonzero"/><path fill="rgb(98.81897%, 81.959534%, 22.349548%)" d="M 190.863281 44.703125 L 189.554688 44.703125 L 189.554688 121.410156 C 189.554688 121.761719 189.695312 122.097656 189.949219 122.34375 C 190.203125 122.589844 190.542969 122.722656 190.894531 122.71875 C 208.339844 122.296875 225.234375 119.964844 240.898438 115.878906 C 241.246094 115.792969 241.542969 115.558594 241.714844 115.246094 C 241.886719 114.929688 241.925781 114.554688 241.8125 114.214844 C 229.109375 74.921875 207.109375 53.992188 191.589844 43.617188 C 191.1875 43.347656 190.675781 43.320312 190.25 43.546875 C 189.820312 43.777344 189.554688 44.21875 189.554688 44.703125 L 190.863281 44.703125 L 190.136719 45.792969 C 205.257812 55.917969 226.800781 76.324219 239.324219 115.019531 L 240.566406 114.617188 L 240.238281 113.347656 C 224.785156 117.375 208.082031 119.683594 190.832031 120.097656 L 190.863281 121.410156 L 192.171875 121.410156 L 192.171875 44.703125 L 190.863281 44.703125 L 190.136719 45.792969 L 190.863281 44.703125 " fill-opacity="1" fill-rule="nonzero"/><path fill="rgb(98.81897%, 81.959534%, 22.349548%)" d="M 302.667969 272.769531 C 301.617188 274.171875 300.535156 275.554688 299.4375 276.921875 C 300.535156 275.554688 301.617188 274.171875 302.667969 272.769531 " fill-opacity="1" fill-rule="nonzero"/><path fill="rgb(98.81897%, 81.959534%, 22.349548%)" d="M 302.667969 272.769531 L 301.617188 271.984375 C 300.578125 273.371094 299.507812 274.746094 298.414062 276.105469 C 298.199219 276.375 298.097656 276.726562 298.136719 277.066406 C 298.175781 277.410156 298.351562 277.730469 298.621094 277.945312 C 298.890625 278.160156 299.238281 278.261719 299.582031 278.226562 C 299.925781 278.1875 300.242188 278.011719 300.460938 277.742188 C 301.5625 276.363281 302.652344 274.96875 303.714844 273.550781 C 304.148438 272.972656 304.03125 272.152344 303.453125 271.71875 C 302.875 271.285156 302.050781 271.40625 301.617188 271.984375 L 302.667969 272.769531 L 301.617188 271.984375 C 300.578125 273.371094 299.507812 274.746094 298.414062 276.105469 C 298.199219 276.375 298.097656 276.726562 298.136719 277.066406 C 298.175781 277.410156 298.351562 277.730469 298.621094 277.945312 C 298.890625 278.160156 299.238281 278.261719 299.582031 278.226562 C 299.925781 278.1875 300.242188 278.011719 300.460938 277.742188 C 301.5625 276.363281 302.652344 274.96875 303.714844 273.550781 C 304.148438 272.972656 304.03125 272.152344 303.453125 271.71875 C 302.875 271.285156 302.050781 271.40625 301.617188 271.984375 L 302.667969 272.769531 " fill-opacity="1" fill-rule="nonzero"/><path fill="rgb(98.81897%, 81.959534%, 22.349548%)" d="M 261.890625 190.945312 C 261.511719 211.632812 259.042969 230.785156 254.492188 248.253906 C 272.800781 254.152344 289.21875 262.414062 302.652344 272.722656 L 302.675781 272.75 C 319.824219 249.757812 330.371094 221.554688 331.535156 190.945312 L 261.890625 190.945312 " fill-opacity="1" fill-rule="nonzero"/><path fill="rgb(98.81897%, 81.959534%, 22.349548%)" d="M 261.890625 190.945312 L 260.582031 190.921875 C 260.203125 211.519531 257.742188 230.570312 253.226562 247.925781 C 253.050781 248.59375 253.429688 249.289062 254.089844 249.5 C 272.277344 255.359375 288.5625 263.558594 301.855469 273.765625 L 302.652344 272.722656 L 301.785156 273.707031 L 301.8125 273.730469 C 302.085938 273.96875 302.449219 274.085938 302.8125 274.050781 C 303.171875 274.007812 303.507812 273.820312 303.726562 273.527344 C 321.027344 250.332031 331.671875 221.875 332.84375 190.996094 C 332.855469 190.640625 332.722656 190.292969 332.480469 190.039062 C 332.234375 189.785156 331.890625 189.636719 331.535156 189.636719 L 261.890625 189.636719 C 261.175781 189.636719 260.597656 190.207031 260.582031 190.921875 L 261.890625 190.945312 L 261.890625 192.253906 L 331.535156 192.253906 L 331.535156 190.945312 L 330.230469 190.898438 C 329.074219 221.234375 318.621094 249.179688 301.625 271.964844 L 302.675781 272.75 L 303.542969 271.765625 L 303.515625 271.742188 L 303.449219 271.683594 C 289.871094 261.269531 273.320312 252.949219 254.894531 247.011719 L 254.492188 248.253906 L 255.761719 248.585938 C 260.335938 231 262.820312 211.746094 263.195312 190.96875 L 261.890625 190.945312 L 261.890625 192.253906 L 261.890625 190.945312 " fill-opacity="1" fill-rule="nonzero"/><path fill="rgb(98.81897%, 81.959534%, 22.349548%)" d="M 261.890625 179.636719 L 331.535156 179.636719 C 330.371094 149.035156 319.824219 120.832031 302.675781 97.835938 L 302.652344 97.859375 C 289.21875 108.164062 272.800781 116.433594 254.492188 122.332031 C 259.042969 139.800781 261.511719 158.949219 261.890625 179.636719 " fill-opacity="1" fill-rule="nonzero"/><path fill="rgb(98.81897%, 81.959534%, 22.349548%)" d="M 261.890625 179.636719 L 261.890625 180.945312 L 331.535156 180.945312 C 331.890625 180.945312 332.234375 180.804688 332.480469 180.546875 C 332.722656 180.292969 332.855469 179.945312 332.84375 179.589844 C 331.671875 148.714844 321.027344 120.253906 303.726562 97.054688 C 303.5 96.746094 303.152344 96.558594 302.777344 96.53125 C 302.398438 96.5 302.027344 96.636719 301.757812 96.902344 L 301.734375 96.925781 L 302.652344 97.859375 L 301.855469 96.824219 C 288.5625 107.019531 272.277344 115.226562 254.089844 121.085938 C 253.429688 121.300781 253.050781 121.992188 253.226562 122.664062 C 257.742188 140.015625 260.203125 159.058594 260.582031 179.660156 C 260.597656 180.378906 261.175781 180.945312 261.890625 180.945312 L 261.890625 179.636719 L 263.195312 179.617188 C 262.820312 158.835938 260.335938 139.585938 255.761719 122 L 254.492188 122.332031 L 254.894531 123.578125 C 273.320312 117.636719 289.871094 109.3125 303.449219 98.898438 L 303.566406 98.792969 L 303.59375 98.769531 L 302.675781 97.835938 L 301.625 98.617188 C 318.621094 121.410156 329.074219 149.355469 330.230469 179.6875 L 331.535156 179.636719 L 331.535156 178.328125 L 261.890625 178.328125 L 261.890625 179.636719 L 263.195312 179.617188 L 261.890625 179.636719 " fill-opacity="1" fill-rule="nonzero"/><path fill="rgb(98.81897%, 81.959534%, 22.349548%)" d="M 190.761719 38.960938 C 191.792969 39 192.820312 39.042969 193.847656 39.105469 C 192.820312 39.042969 191.792969 39 190.761719 38.960938 " fill-opacity="1" fill-rule="nonzero"/><g clip-path="url(#id4)"><path fill="rgb(98.81897%, 81.959534%, 22.349548%)" d="M 190.761719 38.960938 L 190.714844 40.269531 C 191.738281 40.304688 192.757812 40.351562 193.765625 40.414062 C 194.109375 40.433594 194.453125 40.3125 194.710938 40.085938 C 194.972656 39.859375 195.132812 39.53125 195.152344 39.1875 C 195.171875 38.84375 195.054688 38.496094 194.824219 38.238281 C 194.597656 37.980469 194.269531 37.820312 193.925781 37.800781 C 192.886719 37.738281 191.847656 37.691406 190.808594 37.652344 C 190.085938 37.628906 189.476562 38.191406 189.453125 38.914062 C 189.425781 39.636719 189.992188 40.242188 190.714844 40.269531 L 190.761719 38.960938 L 190.714844 40.269531 C 191.738281 40.304688 192.757812 40.351562 193.765625 40.414062 C 194.109375 40.433594 194.453125 40.3125 194.710938 40.085938 C 194.972656 39.859375 195.132812 39.53125 195.152344 39.1875 C 195.171875 38.84375 195.054688 38.496094 194.824219 38.238281 C 194.597656 37.980469 194.269531 37.820312 193.925781 37.800781 C 192.886719 37.738281 191.847656 37.691406 190.808594 37.652344 C 190.085938 37.628906 189.476562 38.191406 189.453125 38.914062 C 189.425781 39.636719 189.992188 40.242188 190.714844 40.269531 L 190.761719 38.960938 " fill-opacity="1" fill-rule="nonzero"/></g><path fill="rgb(98.81897%, 81.959534%, 22.349548%)" d="M 331.535156 190.882812 C 331.570312 190.023438 331.597656 189.160156 331.617188 188.300781 C 331.597656 189.160156 331.570312 190.023438 331.535156 190.882812 " fill-opacity="1" fill-rule="nonzero"/><path fill="rgb(98.81897%, 81.959534%, 22.349548%)" d="M 331.535156 190.882812 L 332.84375 190.933594 C 332.878906 190.066406 332.90625 189.195312 332.925781 188.328125 C 332.941406 187.609375 332.371094 187.007812 331.648438 186.992188 C 330.925781 186.976562 330.324219 187.542969 330.308594 188.265625 C 330.289062 189.125 330.261719 189.980469 330.230469 190.828125 C 330.214844 191.175781 330.339844 191.519531 330.574219 191.769531 C 330.808594 192.027344 331.140625 192.175781 331.484375 192.191406 C 331.828125 192.203125 332.171875 192.078125 332.425781 191.84375 C 332.675781 191.609375 332.828125 191.28125 332.84375 190.933594 L 331.535156 190.882812 L 332.84375 190.933594 C 332.878906 190.066406 332.90625 189.195312 332.925781 188.328125 C 332.941406 187.609375 332.371094 187.007812 331.648438 186.992188 C 330.925781 186.976562 330.324219 187.542969 330.308594 188.265625 C 330.289062 189.125 330.261719 189.980469 330.230469 190.828125 C 330.214844 191.175781 330.339844 191.519531 330.574219 191.769531 C 330.808594 192.027344 331.140625 192.175781 331.484375 192.191406 C 331.828125 192.203125 332.171875 192.078125 332.425781 191.84375 C 332.675781 191.609375 332.828125 191.28125 332.84375 190.933594 L 331.535156 190.882812 " fill-opacity="1" fill-rule="nonzero"/><path fill="rgb(98.81897%, 81.959534%, 22.349548%)" d="M 331.617188 182.292969 C 331.597656 181.421875 331.570312 180.5625 331.535156 179.699219 C 331.570312 180.5625 331.597656 181.425781 331.617188 182.292969 " fill-opacity="1" fill-rule="nonzero"/><path fill="rgb(98.81897%, 81.959534%, 22.349548%)" d="M 331.617188 182.292969 L 332.925781 182.261719 C 332.90625 181.390625 332.878906 180.515625 332.84375 179.648438 C 332.816406 178.925781 332.207031 178.363281 331.484375 178.390625 C 330.761719 178.421875 330.199219 179.027344 330.230469 179.75 C 330.261719 180.601562 330.289062 181.464844 330.308594 182.324219 C 330.316406 182.667969 330.464844 183 330.714844 183.238281 C 330.960938 183.476562 331.304688 183.609375 331.648438 183.601562 C 331.992188 183.589844 332.324219 183.445312 332.5625 183.195312 C 332.800781 182.945312 332.933594 182.605469 332.925781 182.261719 L 331.617188 182.292969 L 332.925781 182.261719 C 332.90625 181.390625 332.878906 180.515625 332.84375 179.648438 C 332.816406 178.925781 332.207031 178.363281 331.484375 178.390625 C 330.761719 178.421875 330.199219 179.027344 330.230469 179.75 C 330.261719 180.601562 330.289062 181.460938 330.308594 182.324219 C 330.316406 182.667969 330.464844 183 330.714844 183.238281 C 330.960938 183.476562 331.304688 183.609375 331.648438 183.601562 C 331.992188 183.589844 332.324219 183.445312 332.5625 183.195312 C 332.800781 182.945312 332.933594 182.605469 332.925781 182.261719 L 331.617188 182.292969 " fill-opacity="1" fill-rule="nonzero"/><path fill="rgb(98.81897%, 81.959534%, 22.349548%)" d="M 237.589844 79.949219 C 243.101562 89.65625 247.664062 100.183594 251.3125 111.46875 C 268.164062 106.011719 283.25 98.445312 295.570312 89.035156 C 296.738281 90.375 297.875 91.738281 299.003906 93.117188 C 275.800781 64.507812 242.027344 44.816406 203.621094 39.996094 C 214.078125 48.136719 226.71875 60.832031 237.589844 79.949219 " fill-opacity="1" fill-rule="nonzero"/><path fill="rgb(98.81897%, 81.959534%, 22.349548%)" d="M 237.589844 79.949219 L 236.449219 80.597656 C 241.914062 90.21875 246.441406 100.664062 250.070312 111.875 C 250.175781 112.207031 250.40625 112.480469 250.71875 112.636719 C 251.03125 112.796875 251.382812 112.824219 251.71875 112.71875 C 268.683594 107.21875 283.902344 99.59375 296.363281 90.074219 L 295.570312 89.035156 L 294.582031 89.894531 C 295.738281 91.21875 296.871094 92.574219 297.988281 93.945312 C 298.445312 94.503906 299.269531 94.589844 299.828125 94.132812 C 300.386719 93.675781 300.472656 92.855469 300.019531 92.292969 C 276.609375 63.429688 242.535156 43.558594 203.78125 38.699219 C 203.199219 38.625 202.636719 38.949219 202.410156 39.496094 C 202.1875 40.039062 202.351562 40.664062 202.816406 41.03125 C 213.15625 49.078125 225.671875 61.640625 236.449219 80.597656 L 237.589844 79.949219 L 238.726562 79.304688 C 227.765625 60.023438 214.996094 47.191406 204.425781 38.964844 L 203.621094 39.996094 L 203.457031 41.296875 C 241.519531 46.070312 274.988281 65.585938 297.984375 93.941406 C 298.207031 94.210938 298.519531 94.382812 298.867188 94.421875 C 299.214844 94.453125 299.558594 94.351562 299.828125 94.132812 C 300.097656 93.914062 300.269531 93.597656 300.308594 93.25 C 300.339844 92.902344 300.238281 92.5625 300.015625 92.289062 C 298.886719 90.902344 297.734375 89.53125 296.554688 88.171875 C 296.101562 87.65625 295.324219 87.574219 294.773438 87.992188 C 282.59375 97.300781 267.640625 104.804688 250.910156 110.226562 L 251.3125 111.46875 L 252.558594 111.066406 C 248.882812 99.703125 244.28125 89.09375 238.726562 79.304688 L 237.589844 79.949219 " fill-opacity="1" fill-rule="nonzero"/><path fill="rgb(98.81897%, 81.959534%, 22.349548%)" d="M 185.207031 331.742188 C 183.769531 331.742188 182.339844 331.710938 180.910156 331.667969 C 182.339844 331.710938 183.769531 331.742188 185.207031 331.742188 " fill-opacity="1" fill-rule="nonzero"/><g clip-path="url(#id5)"><path fill="rgb(98.81897%, 81.959534%, 22.349548%)" d="M 185.207031 331.742188 L 185.207031 330.433594 C 183.785156 330.433594 182.367188 330.402344 180.949219 330.359375 C 180.226562 330.339844 179.621094 330.910156 179.601562 331.632812 C 179.582031 332.355469 180.148438 332.957031 180.871094 332.976562 C 182.308594 333.019531 183.753906 333.050781 185.207031 333.050781 C 185.550781 333.050781 185.890625 332.910156 186.132812 332.664062 C 186.375 332.421875 186.515625 332.085938 186.515625 331.742188 C 186.515625 331.398438 186.375 331.058594 186.132812 330.8125 C 185.890625 330.570312 185.550781 330.433594 185.207031 330.433594 L 185.207031 331.742188 L 185.207031 330.433594 C 183.785156 330.433594 182.367188 330.402344 180.949219 330.359375 C 180.226562 330.339844 179.621094 330.910156 179.601562 331.632812 C 179.582031 332.355469 180.148438 332.957031 180.871094 332.976562 C 182.308594 333.019531 183.753906 333.050781 185.207031 333.050781 C 185.550781 333.050781 185.890625 332.910156 186.132812 332.664062 C 186.375 332.421875 186.515625 332.085938 186.515625 331.742188 C 186.515625 331.398438 186.375 331.058594 186.132812 330.8125 C 185.890625 330.570312 185.550781 330.433594 185.207031 330.433594 L 185.207031 331.742188 " fill-opacity="1" fill-rule="nonzero"/></g><path fill="rgb(98.81897%, 81.959534%, 22.349548%)" d="M 185.207031 331.742188 C 186.644531 331.742188 188.074219 331.710938 189.503906 331.667969 C 188.074219 331.710938 186.644531 331.742188 185.207031 331.742188 " fill-opacity="1" fill-rule="nonzero"/><g clip-path="url(#id6)"><path fill="rgb(98.81897%, 81.959534%, 22.349548%)" d="M 185.207031 331.742188 L 185.207031 333.050781 C 186.664062 333.050781 188.105469 333.019531 189.542969 332.976562 C 189.886719 332.96875 190.222656 332.816406 190.457031 332.566406 C 190.691406 332.316406 190.820312 331.976562 190.8125 331.632812 C 190.804688 331.289062 190.652344 330.953125 190.402344 330.71875 C 190.152344 330.480469 189.8125 330.351562 189.464844 330.359375 C 188.042969 330.402344 186.625 330.433594 185.207031 330.433594 C 184.859375 330.433594 184.527344 330.570312 184.28125 330.8125 C 184.039062 331.058594 183.898438 331.398438 183.898438 331.742188 C 183.898438 332.085938 184.039062 332.421875 184.28125 332.664062 C 184.527344 332.910156 184.859375 333.050781 185.207031 333.050781 L 185.207031 331.742188 L 185.207031 333.050781 C 186.664062 333.050781 188.105469 333.019531 189.542969 332.976562 C 189.886719 332.96875 190.222656 332.816406 190.457031 332.566406 C 190.691406 332.316406 190.820312 331.976562 190.8125 331.632812 C 190.804688 331.289062 190.652344 330.953125 190.402344 330.71875 C 190.152344 330.480469 189.8125 330.351562 189.464844 330.359375 C 188.042969 330.402344 186.625 330.433594 185.207031 330.433594 C 184.859375 330.433594 184.527344 330.570312 184.28125 330.8125 C 184.039062 331.058594 183.898438 331.398438 183.898438 331.742188 C 183.898438 332.085938 184.039062 332.421875 184.28125 332.664062 C 184.527344 332.910156 184.859375 333.050781 185.207031 333.050781 L 185.207031 331.742188 " fill-opacity="1" fill-rule="nonzero"/></g><path fill="rgb(98.81897%, 81.959534%, 22.349548%)" d="M 172.058594 331.144531 C 173.113281 331.242188 174.167969 331.324219 175.234375 331.390625 C 174.167969 331.320312 173.113281 331.242188 172.058594 331.144531 " fill-opacity="1" fill-rule="nonzero"/><path fill="rgb(98.81897%, 81.959534%, 22.349548%)" d="M 172.058594 331.144531 L 171.941406 332.449219 C 173.007812 332.546875 174.074219 332.628906 175.152344 332.695312 C 175.875 332.738281 176.492188 332.195312 176.539062 331.472656 C 176.585938 330.75 176.035156 330.128906 175.316406 330.085938 C 174.261719 330.015625 173.21875 329.9375 172.179688 329.84375 C 171.460938 329.777344 170.824219 330.304688 170.757812 331.027344 C 170.691406 331.746094 171.222656 332.386719 171.941406 332.449219 L 172.058594 331.144531 L 171.941406 332.449219 C 173.007812 332.546875 174.078125 332.628906 175.152344 332.695312 C 175.5 332.71875 175.835938 332.601562 176.097656 332.371094 C 176.359375 332.140625 176.515625 331.820312 176.539062 331.472656 C 176.5625 331.121094 176.445312 330.785156 176.214844 330.523438 C 175.980469 330.261719 175.660156 330.105469 175.3125 330.085938 C 174.265625 330.019531 173.222656 329.9375 172.179688 329.84375 C 171.460938 329.777344 170.824219 330.304688 170.757812 331.027344 C 170.691406 331.746094 171.222656 332.386719 171.941406 332.449219 L 172.058594 331.144531 " fill-opacity="1" fill-rule="nonzero"/><path fill="rgb(98.81897%, 81.959534%, 22.349548%)" d="M 166.789062 330.589844 C 156.339844 322.449219 143.691406 309.753906 132.828125 290.632812 C 127.308594 280.929688 122.742188 270.398438 119.09375 259.113281 C 102.25 264.574219 87.164062 272.132812 74.847656 281.546875 C 73.671875 280.207031 72.527344 278.839844 71.410156 277.457031 C 95.449219 307.113281 130.84375 327.179688 170.984375 331.050781 C 169.582031 330.914062 168.179688 330.765625 166.789062 330.589844 " fill-opacity="1" fill-rule="nonzero"/><path fill="rgb(98.81897%, 81.959534%, 22.349548%)" d="M 166.789062 330.589844 L 167.59375 329.554688 C 157.257812 321.507812 144.738281 308.941406 133.964844 289.984375 C 128.496094 280.367188 123.960938 269.917969 120.339844 258.710938 C 120.234375 258.375 120.003906 258.105469 119.6875 257.945312 C 119.378906 257.785156 119.023438 257.757812 118.691406 257.867188 C 101.726562 263.371094 86.511719 270.984375 74.050781 280.507812 L 74.847656 281.546875 L 75.832031 280.683594 C 74.671875 279.359375 73.535156 278.007812 72.425781 276.636719 C 72.207031 276.363281 71.894531 276.195312 71.546875 276.15625 C 71.199219 276.117188 70.859375 276.222656 70.585938 276.441406 C 70.3125 276.660156 70.144531 276.972656 70.109375 277.320312 C 70.070312 277.667969 70.171875 278.011719 70.390625 278.28125 C 94.644531 308.203125 130.355469 328.453125 170.855469 332.351562 C 171.574219 332.417969 172.214844 331.894531 172.285156 331.175781 C 172.355469 330.457031 171.828125 329.816406 171.109375 329.746094 C 169.714844 329.609375 168.328125 329.464844 166.953125 329.289062 L 166.789062 330.589844 L 167.59375 329.554688 L 166.789062 330.589844 L 166.628906 331.886719 C 168.035156 332.066406 169.445312 332.214844 170.855469 332.351562 C 171.203125 332.386719 171.546875 332.28125 171.8125 332.058594 C 172.082031 331.835938 172.25 331.523438 172.285156 331.175781 C 172.320312 330.828125 172.214844 330.488281 171.992188 330.21875 C 171.769531 329.949219 171.457031 329.78125 171.109375 329.746094 C 131.328125 325.914062 96.253906 306.027344 72.425781 276.632812 C 71.96875 276.074219 71.148438 275.984375 70.585938 276.441406 C 70.023438 276.894531 69.9375 277.71875 70.390625 278.28125 C 71.519531 279.679688 72.679688 281.058594 73.859375 282.40625 C 74.3125 282.929688 75.089844 283.007812 75.640625 282.585938 C 87.816406 273.28125 102.769531 265.777344 119.496094 260.355469 L 119.09375 259.113281 L 117.847656 259.515625 C 121.523438 270.878906 126.125 281.492188 131.6875 291.28125 C 142.648438 310.5625 155.417969 323.390625 165.988281 331.621094 C 166.175781 331.765625 166.394531 331.855469 166.628906 331.886719 L 166.789062 330.589844 " fill-opacity="1" fill-rule="nonzero"/><path fill="rgb(98.81897%, 81.959534%, 22.349548%)" d="M 198.34375 331.144531 C 197.292969 331.242188 196.238281 331.320312 195.1875 331.390625 C 196.238281 331.324219 197.292969 331.242188 198.34375 331.144531 " fill-opacity="1" fill-rule="nonzero"/><path fill="rgb(98.81897%, 81.959534%, 22.349548%)" d="M 198.34375 331.144531 L 198.226562 329.84375 C 197.1875 329.9375 196.148438 330.015625 195.101562 330.085938 C 194.378906 330.128906 193.832031 330.75 193.878906 331.472656 C 193.925781 332.195312 194.542969 332.738281 195.265625 332.695312 C 196.335938 332.628906 197.398438 332.546875 198.464844 332.449219 C 198.808594 332.417969 199.132812 332.25 199.351562 331.984375 C 199.574219 331.71875 199.679688 331.371094 199.652344 331.027344 C 199.617188 330.683594 199.449219 330.359375 199.183594 330.140625 C 198.917969 329.921875 198.570312 329.8125 198.226562 329.84375 L 198.34375 331.144531 L 198.226562 329.84375 C 197.183594 329.9375 196.144531 330.019531 195.105469 330.085938 C 194.757812 330.105469 194.4375 330.261719 194.203125 330.523438 C 193.972656 330.785156 193.855469 331.125 193.878906 331.472656 C 193.902344 331.820312 194.058594 332.140625 194.320312 332.371094 C 194.582031 332.601562 194.921875 332.71875 195.269531 332.695312 C 196.335938 332.628906 197.394531 332.546875 198.464844 332.449219 C 198.808594 332.417969 199.132812 332.25 199.351562 331.984375 C 199.574219 331.71875 199.679688 331.371094 199.652344 331.027344 C 199.617188 330.683594 199.449219 330.359375 199.183594 330.140625 C 198.917969 329.921875 198.570312 329.8125 198.226562 329.84375 L 198.34375 331.144531 " fill-opacity="1" fill-rule="nonzero"/><path fill="rgb(98.81897%, 81.959534%, 22.349548%)" d="M 190.761719 331.625 C 191.792969 331.585938 192.820312 331.535156 193.847656 331.476562 C 192.820312 331.542969 191.792969 331.585938 190.761719 331.625 " fill-opacity="1" fill-rule="nonzero"/><path fill="rgb(98.81897%, 81.959534%, 22.349548%)" d="M 190.761719 331.625 L 190.8125 332.933594 C 191.851562 332.894531 192.890625 332.84375 193.921875 332.785156 C 194.269531 332.761719 194.59375 332.605469 194.824219 332.34375 C 195.058594 332.082031 195.171875 331.746094 195.152344 331.398438 C 195.132812 331.046875 194.976562 330.726562 194.710938 330.492188 C 194.449219 330.261719 194.109375 330.144531 193.761719 330.171875 C 192.757812 330.234375 191.738281 330.277344 190.707031 330.320312 C 189.984375 330.347656 189.425781 330.957031 189.453125 331.679688 C 189.480469 332.402344 190.089844 332.964844 190.8125 332.933594 L 190.761719 331.625 L 190.8125 332.933594 C 191.847656 332.894531 192.886719 332.847656 193.929688 332.78125 C 194.652344 332.734375 195.195312 332.117188 195.152344 331.398438 C 195.109375 330.675781 194.492188 330.125 193.769531 330.171875 C 192.757812 330.226562 191.730469 330.277344 190.707031 330.320312 C 189.984375 330.347656 189.425781 330.957031 189.453125 331.679688 C 189.480469 332.402344 190.089844 332.964844 190.8125 332.933594 L 190.761719 331.625 " fill-opacity="1" fill-rule="nonzero"/><path fill="rgb(98.81897%, 81.959534%, 22.349548%)" d="M 295.570312 281.546875 C 283.25 272.132812 268.164062 264.574219 251.3125 259.113281 C 247.664062 270.398438 243.101562 280.929688 237.589844 290.632812 C 226.71875 309.753906 214.078125 322.449219 203.621094 330.589844 C 242.027344 325.773438 275.800781 306.078125 299.003906 277.46875 C 297.875 278.84375 296.738281 280.207031 295.570312 281.546875 " fill-opacity="1" fill-rule="nonzero"/><path fill="rgb(98.81897%, 81.959534%, 22.349548%)" d="M 295.570312 281.546875 L 296.363281 280.507812 C 283.902344 270.984375 268.683594 263.371094 251.71875 257.867188 C 251.382812 257.757812 251.03125 257.785156 250.71875 257.945312 C 250.40625 258.105469 250.179688 258.375 250.070312 258.710938 C 246.441406 269.917969 241.914062 280.367188 236.449219 289.984375 C 225.671875 308.941406 213.15625 321.507812 202.816406 329.554688 C 202.351562 329.917969 202.1875 330.546875 202.410156 331.089844 C 202.636719 331.636719 203.199219 331.960938 203.78125 331.886719 C 242.535156 327.027344 276.609375 307.15625 300.019531 278.292969 C 300.472656 277.730469 300.386719 276.910156 299.828125 276.453125 C 299.269531 275.996094 298.445312 276.078125 297.988281 276.640625 C 296.871094 278.011719 295.738281 279.359375 294.582031 280.683594 L 295.570312 281.546875 L 296.363281 280.507812 L 295.570312 281.546875 L 296.554688 282.40625 C 297.734375 281.054688 298.882812 279.679688 300.015625 278.296875 C 300.238281 278.023438 300.339844 277.683594 300.308594 277.335938 C 300.269531 276.988281 300.101562 276.675781 299.828125 276.453125 C 299.558594 276.230469 299.214844 276.128906 298.867188 276.167969 C 298.519531 276.199219 298.207031 276.371094 297.984375 276.644531 C 274.988281 305 241.519531 324.515625 203.457031 329.289062 L 203.621094 330.589844 L 204.425781 331.621094 C 214.996094 323.390625 227.765625 310.5625 238.726562 291.28125 C 244.28125 281.492188 248.882812 270.878906 252.558594 259.515625 L 251.3125 259.113281 L 250.910156 260.355469 C 267.640625 265.777344 282.597656 273.28125 294.773438 282.585938 C 295.320312 283.007812 296.097656 282.929688 296.554688 282.40625 L 295.570312 281.546875 " fill-opacity="1" fill-rule="nonzero"/><path fill="rgb(98.81897%, 81.959534%, 22.349548%)" d="M 203.601562 330.59375 C 202.21875 330.765625 200.832031 330.914062 199.441406 331.050781 C 200.832031 330.917969 202.21875 330.765625 203.601562 330.59375 " fill-opacity="1" fill-rule="nonzero"/><path fill="rgb(98.81897%, 81.959534%, 22.349548%)" d="M 203.601562 330.59375 L 203.4375 329.292969 C 202.070312 329.464844 200.695312 329.609375 199.308594 329.746094 C 198.589844 329.820312 198.066406 330.457031 198.132812 331.175781 C 198.207031 331.894531 198.84375 332.417969 199.5625 332.351562 C 200.964844 332.21875 202.367188 332.066406 203.761719 331.890625 C 204.105469 331.847656 204.421875 331.667969 204.632812 331.398438 C 204.84375 331.125 204.941406 330.769531 204.898438 330.429688 C 204.855469 330.089844 204.675781 329.769531 204.40625 329.558594 C 204.132812 329.347656 203.78125 329.25 203.4375 329.292969 L 203.601562 330.59375 L 203.4375 329.292969 C 202.070312 329.464844 200.695312 329.613281 199.3125 329.746094 C 198.964844 329.78125 198.648438 329.949219 198.425781 330.21875 C 198.207031 330.488281 198.105469 330.828125 198.132812 331.175781 C 198.167969 331.523438 198.335938 331.835938 198.609375 332.0625 C 198.878906 332.28125 199.21875 332.386719 199.566406 332.351562 C 200.964844 332.214844 202.363281 332.066406 203.761719 331.890625 C 204.105469 331.847656 204.421875 331.667969 204.632812 331.398438 C 204.84375 331.125 204.941406 330.769531 204.898438 330.429688 C 204.855469 330.089844 204.675781 329.769531 204.40625 329.558594 C 204.132812 329.347656 203.78125 329.25 203.4375 329.292969 L 203.601562 330.59375 " fill-opacity="1" fill-rule="nonzero"/><path fill="rgb(98.81897%, 81.959534%, 22.349548%)" d="M 38.796875 188.300781 C 38.816406 189.160156 38.84375 190.023438 38.875 190.882812 C 38.84375 190.023438 38.816406 189.160156 38.796875 188.300781 " fill-opacity="1" fill-rule="nonzero"/><g clip-path="url(#id7)"><path fill="rgb(98.81897%, 81.959534%, 22.349548%)" d="M 38.796875 188.300781 L 37.488281 188.328125 C 37.507812 189.195312 37.539062 190.066406 37.566406 190.925781 C 37.574219 191.269531 37.726562 191.601562 37.976562 191.839844 C 38.230469 192.074219 38.570312 192.203125 38.914062 192.191406 C 39.257812 192.179688 39.59375 192.027344 39.828125 191.777344 C 40.0625 191.523438 40.191406 191.183594 40.179688 190.839844 C 40.152344 189.980469 40.125 189.121094 40.105469 188.269531 C 40.085938 187.546875 39.492188 186.976562 38.769531 186.992188 C 38.046875 187.003906 37.472656 187.605469 37.488281 188.328125 L 38.796875 188.300781 L 37.488281 188.328125 C 37.507812 189.195312 37.539062 190.066406 37.566406 190.925781 C 37.574219 191.269531 37.726562 191.601562 37.976562 191.839844 C 38.230469 192.074219 38.570312 192.203125 38.914062 192.191406 C 39.257812 192.179688 39.59375 192.027344 39.828125 191.777344 C 40.0625 191.523438 40.191406 191.183594 40.179688 190.839844 C 40.152344 189.980469 40.125 189.121094 40.105469 188.269531 C 40.085938 187.546875 39.492188 186.976562 38.769531 186.992188 C 38.046875 187.003906 37.472656 187.605469 37.488281 188.328125 L 38.796875 188.300781 " fill-opacity="1" fill-rule="nonzero"/></g><path fill="rgb(98.81897%, 81.959534%, 22.349548%)" d="M 67.765625 97.859375 L 67.734375 97.835938 C 50.585938 120.828125 40.042969 149.035156 38.882812 179.636719 L 108.515625 179.636719 C 108.898438 158.949219 111.371094 139.800781 115.917969 122.332031 C 97.617188 116.433594 81.191406 108.167969 67.765625 97.859375 " fill-opacity="1" fill-rule="nonzero"/><g clip-path="url(#id8)"><path fill="rgb(98.81897%, 81.959534%, 22.349548%)" d="M 67.765625 97.859375 L 68.570312 96.828125 L 68.539062 96.804688 C 68.261719 96.585938 67.910156 96.492188 67.558594 96.535156 C 67.207031 96.585938 66.894531 96.769531 66.683594 97.054688 C 49.382812 120.25 38.746094 148.714844 37.574219 179.589844 C 37.5625 179.945312 37.695312 180.292969 37.941406 180.546875 C 38.1875 180.804688 38.527344 180.945312 38.882812 180.945312 L 108.515625 180.945312 C 109.230469 180.945312 109.8125 180.378906 109.824219 179.664062 C 110.207031 159.0625 112.667969 140.015625 117.1875 122.664062 C 117.359375 121.988281 116.984375 121.300781 116.320312 121.085938 C 98.144531 115.226562 81.847656 107.023438 68.5625 96.824219 L 67.765625 97.859375 L 68.570312 96.828125 L 67.765625 97.859375 L 66.964844 98.898438 C 80.539062 109.3125 97.097656 117.636719 115.515625 123.578125 L 115.917969 122.332031 L 114.652344 122.003906 C 110.078125 139.582031 107.59375 158.839844 107.207031 179.613281 L 108.515625 179.636719 L 108.515625 178.328125 L 38.882812 178.328125 L 38.882812 179.636719 L 40.191406 179.6875 C 41.339844 149.355469 51.785156 121.410156 68.78125 98.617188 L 67.734375 97.835938 L 66.925781 98.863281 L 66.957031 98.886719 L 66.964844 98.898438 L 67.765625 97.859375 " fill-opacity="1" fill-rule="nonzero"/></g><path fill="rgb(98.81897%, 81.959534%, 22.349548%)" d="M 38.796875 182.257812 C 38.816406 181.40625 38.84375 180.550781 38.875 179.703125 C 38.84375 180.550781 38.816406 181.40625 38.796875 182.257812 " fill-opacity="1" fill-rule="nonzero"/><g clip-path="url(#id9)"><path fill="rgb(98.81897%, 81.959534%, 22.349548%)" d="M 38.796875 182.257812 L 40.105469 182.289062 C 40.125 181.445312 40.152344 180.59375 40.179688 179.742188 C 40.203125 179.019531 39.636719 178.417969 38.914062 178.394531 C 38.191406 178.371094 37.589844 178.9375 37.566406 179.65625 C 37.539062 180.507812 37.507812 181.367188 37.488281 182.230469 C 37.480469 182.574219 37.613281 182.917969 37.851562 183.164062 C 38.085938 183.414062 38.421875 183.558594 38.769531 183.566406 C 39.113281 183.578125 39.449219 183.445312 39.703125 183.207031 C 39.949219 182.96875 40.097656 182.632812 40.105469 182.289062 L 38.796875 182.257812 L 40.105469 182.289062 C 40.125 181.445312 40.152344 180.59375 40.179688 179.742188 C 40.203125 179.019531 39.636719 178.417969 38.914062 178.394531 C 38.191406 178.371094 37.589844 178.9375 37.566406 179.65625 C 37.539062 180.507812 37.507812 181.367188 37.488281 182.230469 C 37.480469 182.574219 37.613281 182.917969 37.851562 183.164062 C 38.085938 183.414062 38.421875 183.558594 38.769531 183.566406 C 39.113281 183.578125 39.449219 183.445312 39.703125 183.207031 C 39.949219 182.96875 40.097656 182.632812 40.105469 182.289062 L 38.796875 182.257812 " fill-opacity="1" fill-rule="nonzero"/></g><path fill="rgb(98.81897%, 81.959534%, 22.349548%)" d="M 172.058594 39.441406 C 173.113281 39.34375 174.167969 39.265625 175.234375 39.191406 C 174.167969 39.265625 173.113281 39.34375 172.058594 39.441406 " fill-opacity="1" fill-rule="nonzero"/><g clip-path="url(#id10)"><path fill="rgb(98.81897%, 81.959534%, 22.349548%)" d="M 172.058594 39.441406 L 172.179688 40.742188 C 173.222656 40.648438 174.265625 40.566406 175.320312 40.5 C 175.664062 40.472656 175.992188 40.3125 176.21875 40.050781 C 176.445312 39.792969 176.5625 39.449219 176.539062 39.105469 C 176.515625 38.761719 176.355469 38.433594 176.09375 38.203125 C 175.835938 37.980469 175.488281 37.859375 175.144531 37.882812 C 174.074219 37.960938 173.007812 38.042969 171.941406 38.136719 C 171.222656 38.203125 170.691406 38.839844 170.757812 39.5625 C 170.824219 40.28125 171.460938 40.808594 172.179688 40.742188 L 172.058594 39.441406 L 172.179688 40.742188 C 173.222656 40.648438 174.265625 40.566406 175.320312 40.5 C 175.664062 40.472656 175.992188 40.3125 176.21875 40.050781 C 176.445312 39.792969 176.5625 39.449219 176.539062 39.105469 C 176.515625 38.761719 176.355469 38.433594 176.09375 38.203125 C 175.835938 37.980469 175.488281 37.859375 175.144531 37.882812 C 174.074219 37.960938 173.007812 38.042969 171.941406 38.136719 C 171.222656 38.203125 170.691406 38.839844 170.757812 39.5625 C 170.824219 40.28125 171.460938 40.808594 172.179688 40.742188 L 172.058594 39.441406 " fill-opacity="1" fill-rule="nonzero"/></g><path fill="rgb(98.81897%, 81.959534%, 22.349548%)" d="M 74.847656 89.035156 C 87.164062 98.445312 102.25 106.011719 119.09375 111.46875 C 122.742188 100.183594 127.308594 89.65625 132.828125 79.949219 C 143.691406 60.832031 156.339844 48.136719 166.789062 39.996094 C 168.179688 39.820312 169.582031 39.671875 170.984375 39.53125 C 130.84375 43.40625 95.449219 63.476562 71.398438 93.128906 C 72.523438 91.746094 73.671875 90.382812 74.847656 89.035156 " fill-opacity="1" fill-rule="nonzero"/><path fill="rgb(98.81897%, 81.959534%, 22.349548%)" d="M 74.847656 89.035156 L 74.050781 90.074219 C 86.511719 99.59375 101.726562 107.21875 118.691406 112.71875 C 119.023438 112.824219 119.378906 112.796875 119.6875 112.636719 C 120.003906 112.480469 120.234375 112.207031 120.339844 111.875 C 123.960938 100.664062 128.496094 90.21875 133.964844 80.597656 C 144.738281 61.640625 157.257812 49.078125 167.59375 41.03125 L 166.789062 39.996094 L 166.957031 41.296875 C 168.332031 41.117188 169.714844 40.972656 171.109375 40.835938 C 171.828125 40.765625 172.355469 40.125 172.285156 39.40625 C 172.214844 38.683594 171.574219 38.160156 170.855469 38.230469 C 130.355469 42.136719 94.644531 62.386719 70.382812 92.304688 C 69.929688 92.867188 70.011719 93.691406 70.574219 94.148438 C 71.136719 94.601562 71.960938 94.515625 72.414062 93.953125 C 73.53125 92.582031 74.667969 91.226562 75.832031 89.894531 L 74.847656 89.035156 L 74.050781 90.074219 L 74.847656 89.035156 L 73.859375 88.171875 C 72.675781 89.53125 71.515625 90.90625 70.382812 92.304688 C 70.167969 92.574219 70.0625 92.921875 70.097656 93.265625 C 70.132812 93.609375 70.304688 93.929688 70.574219 94.148438 C 70.847656 94.367188 71.1875 94.46875 71.535156 94.429688 C 71.882812 94.394531 72.199219 94.226562 72.414062 93.953125 C 96.25 64.5625 131.328125 44.671875 171.109375 40.835938 C 171.457031 40.800781 171.769531 40.632812 171.992188 40.367188 C 172.214844 40.09375 172.320312 39.753906 172.285156 39.40625 C 172.25 39.058594 172.082031 38.742188 171.8125 38.523438 C 171.546875 38.300781 171.203125 38.195312 170.855469 38.230469 C 169.445312 38.367188 168.035156 38.519531 166.628906 38.699219 C 166.390625 38.730469 166.175781 38.816406 165.988281 38.964844 C 155.417969 47.191406 142.648438 60.023438 131.6875 79.304688 C 126.125 89.09375 121.523438 99.703125 117.847656 111.066406 L 119.09375 111.46875 L 119.496094 110.226562 C 102.769531 104.804688 87.816406 97.300781 75.640625 87.992188 C 75.089844 87.578125 74.3125 87.652344 73.859375 88.171875 L 74.847656 89.035156 " fill-opacity="1" fill-rule="nonzero"/><path fill="rgb(98.81897%, 81.959534%, 22.349548%)" d="M 129.847656 114.617188 C 145.410156 118.671875 162.199219 120.988281 179.554688 121.410156 L 179.554688 44.699219 C 164.222656 54.953125 142.453125 75.621094 129.847656 114.617188 " fill-opacity="1" fill-rule="nonzero"/><path fill="rgb(98.81897%, 81.959534%, 22.349548%)" d="M 129.847656 114.617188 L 129.515625 115.878906 C 145.183594 119.964844 162.074219 122.296875 179.523438 122.71875 C 179.878906 122.722656 180.214844 122.589844 180.46875 122.34375 C 180.722656 122.097656 180.863281 121.761719 180.863281 121.410156 L 180.863281 44.699219 C 180.863281 44.214844 180.597656 43.777344 180.171875 43.546875 C 179.746094 43.320312 179.230469 43.34375 178.828125 43.613281 C 163.296875 53.992188 141.300781 74.917969 128.601562 114.214844 C 128.492188 114.554688 128.527344 114.929688 128.699219 115.246094 C 128.875 115.558594 129.167969 115.792969 129.515625 115.878906 L 129.847656 114.617188 L 131.089844 115.019531 C 143.609375 76.320312 165.152344 55.917969 180.28125 45.789062 L 179.554688 44.699219 L 178.246094 44.699219 L 178.246094 121.410156 L 179.554688 121.410156 L 179.585938 120.097656 C 162.328125 119.683594 145.632812 117.375 130.175781 113.347656 L 129.847656 114.617188 L 131.089844 115.019531 L 129.847656 114.617188 " fill-opacity="1" fill-rule="nonzero"/><path fill="rgb(98.81897%, 81.959534%, 22.349548%)" d="M 176.5625 39.105469 C 177.589844 39.042969 178.625 39 179.652344 38.960938 C 178.625 39 177.589844 39.042969 176.5625 39.105469 " fill-opacity="1" fill-rule="nonzero"/><g clip-path="url(#id11)"><path fill="rgb(98.81897%, 81.959534%, 22.349548%)" d="M 176.5625 39.105469 L 176.640625 40.414062 C 177.65625 40.351562 178.679688 40.304688 179.699219 40.269531 C 180.042969 40.257812 180.375 40.105469 180.609375 39.855469 C 180.84375 39.601562 180.972656 39.257812 180.960938 38.914062 C 180.949219 38.570312 180.796875 38.238281 180.546875 38.003906 C 180.292969 37.769531 179.953125 37.640625 179.609375 37.652344 C 178.570312 37.691406 177.527344 37.738281 176.484375 37.800781 C 175.761719 37.84375 175.210938 38.464844 175.257812 39.1875 C 175.300781 39.910156 175.921875 40.457031 176.640625 40.414062 L 176.5625 39.105469 L 176.640625 40.414062 C 177.65625 40.351562 178.679688 40.304688 179.699219 40.269531 C 180.042969 40.257812 180.375 40.105469 180.609375 39.855469 C 180.84375 39.601562 180.972656 39.257812 180.960938 38.914062 C 180.949219 38.570312 180.796875 38.238281 180.546875 38.003906 C 180.292969 37.769531 179.953125 37.640625 179.609375 37.652344 C 178.570312 37.691406 177.527344 37.738281 176.484375 37.800781 C 175.761719 37.84375 175.210938 38.464844 175.257812 39.1875 C 175.300781 39.910156 175.921875 40.457031 176.640625 40.414062 L 176.5625 39.105469 " fill-opacity="1" fill-rule="nonzero"/></g><path fill="rgb(98.81897%, 81.959534%, 22.349548%)" d="M 179.652344 331.625 C 178.625 331.585938 177.589844 331.542969 176.5625 331.476562 C 177.589844 331.535156 178.625 331.585938 179.652344 331.625 " fill-opacity="1" fill-rule="nonzero"/><path fill="rgb(98.81897%, 81.959534%, 22.349548%)" d="M 179.652344 331.625 L 179.707031 330.320312 C 178.679688 330.277344 177.65625 330.234375 176.648438 330.171875 C 176.296875 330.148438 175.957031 330.261719 175.695312 330.492188 C 175.433594 330.726562 175.277344 331.046875 175.257812 331.398438 C 175.234375 331.746094 175.351562 332.082031 175.582031 332.34375 C 175.816406 332.605469 176.140625 332.761719 176.488281 332.785156 C 177.523438 332.84375 178.566406 332.894531 179.601562 332.933594 C 179.945312 332.949219 180.289062 332.820312 180.542969 332.589844 C 180.792969 332.355469 180.949219 332.023438 180.960938 331.679688 C 180.976562 331.335938 180.847656 330.992188 180.613281 330.738281 C 180.382812 330.488281 180.046875 330.332031 179.707031 330.320312 L 179.652344 331.625 L 179.707031 330.320312 C 178.683594 330.277344 177.65625 330.226562 176.640625 330.171875 C 175.917969 330.128906 175.300781 330.675781 175.257812 331.398438 C 175.210938 332.121094 175.757812 332.734375 176.480469 332.78125 C 177.527344 332.847656 178.570312 332.894531 179.601562 332.933594 C 179.945312 332.949219 180.289062 332.820312 180.542969 332.589844 C 180.792969 332.355469 180.949219 332.023438 180.960938 331.679688 C 180.976562 331.335938 180.847656 330.992188 180.613281 330.738281 C 180.382812 330.488281 180.046875 330.332031 179.707031 330.320312 L 179.652344 331.625 " fill-opacity="1" fill-rule="nonzero"/><path fill="rgb(98.81897%, 81.959534%, 22.349548%)" d="M 67.738281 97.824219 C 68.796875 96.410156 69.878906 95.019531 70.988281 93.644531 C 69.878906 95.019531 68.796875 96.410156 67.738281 97.824219 " fill-opacity="1" fill-rule="nonzero"/><path fill="rgb(98.81897%, 81.959534%, 22.349548%)" d="M 67.738281 97.824219 L 68.789062 98.605469 C 69.835938 97.207031 70.90625 95.832031 72.007812 94.46875 C 72.460938 93.90625 72.371094 93.082031 71.808594 92.628906 C 71.246094 92.175781 70.425781 92.261719 69.96875 92.824219 C 68.851562 94.207031 67.757812 95.613281 66.695312 97.039062 C 66.484375 97.316406 66.398438 97.667969 66.445312 98.011719 C 66.496094 98.351562 66.683594 98.667969 66.960938 98.871094 C 67.234375 99.078125 67.585938 99.167969 67.925781 99.117188 C 68.273438 99.070312 68.585938 98.882812 68.789062 98.605469 L 67.738281 97.824219 L 68.789062 98.605469 C 69.835938 97.207031 70.90625 95.832031 72.007812 94.46875 C 72.460938 93.90625 72.371094 93.082031 71.808594 92.628906 C 71.246094 92.175781 70.425781 92.261719 69.96875 92.824219 C 68.851562 94.207031 67.757812 95.613281 66.695312 97.039062 C 66.484375 97.316406 66.398438 97.667969 66.445312 98.011719 C 66.496094 98.351562 66.683594 98.667969 66.960938 98.871094 C 67.234375 99.078125 67.585938 99.167969 67.925781 99.117188 C 68.273438 99.070312 68.585938 98.882812 68.789062 98.605469 L 67.738281 97.824219 " fill-opacity="1" fill-rule="nonzero"/><path fill="rgb(98.81897%, 81.959534%, 22.349548%)" d="M 67.738281 272.757812 C 68.792969 274.167969 69.878906 275.554688 70.976562 276.933594 C 69.875 275.554688 68.792969 274.167969 67.738281 272.757812 " fill-opacity="1" fill-rule="nonzero"/><path fill="rgb(98.81897%, 81.959534%, 22.349548%)" d="M 67.738281 272.757812 L 66.691406 273.539062 C 67.757812 274.96875 68.851562 276.367188 69.957031 277.75 C 70.175781 278.023438 70.488281 278.195312 70.835938 278.230469 C 71.183594 278.273438 71.523438 278.171875 71.796875 277.957031 C 72.070312 277.734375 72.242188 277.425781 72.28125 277.078125 C 72.316406 276.730469 72.21875 276.386719 72 276.117188 C 70.902344 274.746094 69.828125 273.371094 68.785156 271.972656 C 68.351562 271.394531 67.535156 271.277344 66.957031 271.707031 C 66.375 272.140625 66.257812 272.960938 66.691406 273.539062 L 67.738281 272.757812 L 66.691406 273.539062 C 67.753906 274.96875 68.847656 276.367188 69.957031 277.75 C 70.410156 278.3125 71.234375 278.40625 71.796875 277.957031 C 72.363281 277.503906 72.453125 276.675781 72 276.117188 C 70.90625 274.746094 69.828125 273.371094 68.785156 271.972656 C 68.351562 271.394531 67.535156 271.277344 66.957031 271.707031 C 66.375 272.140625 66.257812 272.960938 66.691406 273.539062 L 67.738281 272.757812 " fill-opacity="1" fill-rule="nonzero"/><path fill="rgb(98.81897%, 81.959534%, 22.349548%)" d="M 108.515625 190.945312 L 38.882812 190.945312 C 40.042969 221.554688 50.585938 249.757812 67.734375 272.75 L 67.765625 272.722656 C 81.191406 262.414062 97.617188 254.152344 115.917969 248.253906 C 111.371094 230.785156 108.898438 211.632812 108.515625 190.945312 " fill-opacity="1" fill-rule="nonzero"/><g clip-path="url(#id12)"><path fill="rgb(98.81897%, 81.959534%, 22.349548%)" d="M 108.515625 190.945312 L 108.515625 189.636719 L 38.882812 189.636719 C 38.527344 189.636719 38.1875 189.785156 37.941406 190.039062 C 37.695312 190.292969 37.5625 190.640625 37.574219 190.996094 C 38.746094 221.875 49.382812 250.332031 66.683594 273.53125 C 66.894531 273.816406 67.21875 274.003906 67.570312 274.050781 C 67.921875 274.09375 68.28125 273.992188 68.558594 273.765625 L 68.589844 273.742188 L 67.765625 272.722656 L 68.5625 273.765625 C 81.847656 263.558594 98.144531 255.359375 116.320312 249.5 C 116.984375 249.289062 117.359375 248.59375 117.1875 247.925781 C 112.667969 230.570312 110.207031 211.519531 109.824219 190.921875 C 109.8125 190.207031 109.230469 189.636719 108.515625 189.636719 L 108.515625 190.945312 L 107.207031 190.96875 C 107.59375 211.746094 110.078125 231 114.652344 248.585938 L 115.917969 248.253906 L 115.515625 247.011719 C 97.097656 252.949219 80.539062 261.269531 66.964844 271.6875 L 66.9375 271.707031 L 66.910156 271.734375 L 67.734375 272.75 L 68.78125 271.96875 C 51.785156 249.179688 41.339844 221.234375 40.191406 190.898438 L 38.882812 190.945312 L 38.882812 192.253906 L 108.515625 192.253906 L 108.515625 190.945312 L 107.207031 190.96875 L 108.515625 190.945312 " fill-opacity="1" fill-rule="nonzero"/></g></svg>